<?xml version="1.0" encoding="UTF-8"?>
<!DOCTYPE svg PUBLIC "-//W3C//DTD SVG 1.1//EN" "http://www.w3.org/Graphics/SVG/1.1/DTD/svg11.dtd">
<!-- Creator: CorelDRAW 2019 (64-Bit) -->
<svg xmlns="http://www.w3.org/2000/svg" xml:space="preserve" width="209.55mm" height="381mm" version="1.1" style="shape-rendering:geometricPrecision; text-rendering:geometricPrecision; image-rendering:optimizeQuality; fill-rule:evenodd; clip-rule:evenodd"
viewBox="0 0 20955 38100"
 xmlns:xlink="http://www.w3.org/1999/xlink"
 xmlns:xodm="http://www.corel.com/coreldraw/odm/2003">
 <defs>
  <style type="text/css">
   <![CDATA[
    .str0 {stroke:#373435;stroke-width:20;stroke-miterlimit:22.9256}
    .fil21 {fill:none}
    .fil0 {fill:#0F0D22}
    .fil7 {fill:#3A7D7B}
    .fil14 {fill:#3A807C}
    .fil1 {fill:#63EFD3}
    .fil5 {fill:#64EDD4}
    .fil3 {fill:#64EFD5}
    .fil9 {fill:#66EFD5}
    .fil12 {fill:#68EFD6}
    .fil20 {fill:#878590}
    .fil19 {fill:#888693}
    .fil10 {fill:#A6C7C6}
    .fil13 {fill:#B3F7E9}
    .fil6 {fill:#B60B6B}
    .fil11 {fill:#C3C2C9}
    .fil18 {fill:#DA87B5}
    .fil17 {fill:#EE0B82}
    .fil16 {fill:#EF0983}
    .fil15 {fill:#EF0A81}
    .fil2 {fill:#F00882}
    .fil4 {fill:#F10983}
    .fil8 {fill:#FEFEFE}
   ]]>
  </style>
    <clipPath id="id0">
     <path d="M7560.58 10733.61l5819.54 0 0 3693.84 -5819.54 0 0 -3693.84z"/>
    </clipPath>
     <clipPath id="id1">
      <path d="M7560.58 10733.61l5819.54 0 0 3693.84 -5819.54 0 0 -3693.84z"/>
     </clipPath>
     <clipPath id="id2">
      <path d="M7560.58 10733.61l5819.54 0 0 3693.84 -5819.54 0 0 -3693.84z"/>
     </clipPath>
 </defs>
 <g id="Capa_x0020_1">
  <metadata id="CorelCorpID_0Corel-Layer"/>
  <rect class="fil0 str0" x="-10.05" y="61.16" width="20960.8" height="38038.84"/>
  <g id="_2650022194912">
   <g>
    <path class="fil1" d="M15083.53 9064.72l507.58 22.62 0.05 613.8 313.5 2.9c-0.39,-125.81 -0.52,-248.69 -0.37,-371.54 0.45,-361.4 107.2,-301.62 -507.71,-301.59l-0.13 -1746.18 -313.05 -5.59 0.13 1785.58z"/>
    <polygon class="fil2" points="4539.01,6434.39 4885.28,6441.19 4885.35,4406.03 4801.54,4399.28 4667.56,4400.44 4538.93,4403.84 "/>
    <polygon class="fil2" points="4889.02,7277.4 4554.45,7279.41 4554.35,9021.44 4870.3,9021.71 "/>
    <polygon class="fil3" points="16093.31,6364.41 16097.63,6448.47 16400.75,6448.36 16407.47,6364.49 16406.34,4662.44 16093.31,4662.44 "/>
    <path class="fil4" d="M5056.92 7241.87c23.25,32.58 269.09,15.87 325.15,15.87l0 -804.29 -335.06 0.21 9.91 788.21z"/>
    <polygon class="fil5" points="15591.11,7246.33 15669.31,7259.61 15825.83,7257.45 15904.69,7249.28 15904.29,6464.47 15591.08,6455.48 "/>
    <polygon class="fil2" points="5046.35,9712.05 5398.68,9710.39 5397.86,9096.62 5051.91,9091.69 "/>
    <polygon class="fil1" points="15904.16,4621.45 15904.27,3987.36 15602.02,3976.15 15601.97,4624.43 "/>
    <polygon class="fil2" points="8288.24,9706.39 8639.89,9712.74 8640.18,9287.42 8288.03,9289.29 "/>
    <polygon class="fil2" points="12020.9,9708.86 12378.21,9709.13 12378.05,9298.86 12021,9290.93 "/>
    <polygon class="fil2" points="8993.22,4372.97 9334.63,4373 9344.18,3965.4 8991.29,3965.29 "/>
    <path class="fil2" d="M5476.57 4367.44l320.91 -0.16c26.01,-93.99 26.15,-307.97 -0.03,-402.04l-320.99 0c-31.73,95.71 -31.63,306.36 0.11,402.2z"/>
    <polygon class="fil1" points="7267.1,9700.98 7345.25,9714.37 7591.31,9712.16 7591.28,9287.66 7266.97,9291.11 "/>
    <polygon class="fil1" points="7971.68,4372.97 8285.82,4372.95 8295.36,3976.28 7970.13,3976.28 "/>
    <path class="fil6" d="M4889.02 7277.4l-18.72 1744.31 -315.95 -0.27 0.1 -1742.03 334.57 -2.01zm167.9 -35.53l-512.53 0.74 -11.13 1794.44 352.52 4.79 3.24 -1764.44 509.82 1.35c13.15,-142.57 5.53,-284.33 5.53,-423.37l-22.3 -401.93 0 804.29c-56.06,0 -301.9,16.71 -325.15,-15.87z"/>
    <polygon class="fil5" points="12020.9,9708.86 12021,9290.93 11836.47,9289.56 11836.44,9706.73 "/>
    <path class="fil7" d="M15904.16 4621.45l-302.19 2.98 0.05 -648.28c-46.68,74.68 -25.96,589.9 -11.34,659.27 95.37,20.85 238.2,28.34 313.48,-13.97z"/>
    <g>
     <path class="fil8" d="M14033.42 5377.48l128.02 5.01 -0.1 1025.33 -127.71 6.2 -122.85 -5.35 -0.06 -1024.83 122.7 -6.36zm-635.49 1293.98l763.56 0.05 -0.07 250.82 -513.28 1.03 1.56 257.13 1021.4 3.63c31.47,-116 31.79,-1942.93 0.53,-2063.52 -267.85,-3.59 -1075.62,34.13 -1273.18,-14.34l-0.52 1565.2z"/>
     <path class="fil8" d="M8133.26 5382.44l133.69 0.08 0.07 1026.52 -133.79 -0.14 -116.95 0.03 -0.21 -1026.62 117.19 0.13zm653.13 1272.62l0.26 -1518.7 -1278.34 0.05 -0.58 1518.78 1278.66 -0.13z"/>
     <path class="fil8" d="M6587.72 5379.88l134.01 6.51 -1.06 499.65 -122.7 6.03 -118.61 -2.63 -9.43 -506.87 117.79 -2.69zm-640.16 1275.55l511.82 0.05c0,-119.79 -25.19,-407.23 22.59,-502.57l105.88 -4.16 133.9 9.54 1.35 513.19 501.64 -0.05c31.77,-112.31 31.29,-412.14 0.14,-524.79l-123.91 3.51 -117.45 -12.16 0.36 -230.81 117.11 -14.37 139.46 3.03 -1.34 -769.73 -1.4 -14.24 -1286.3 8.41 -3.85 1535.15z"/>
     <path class="fil8" d="M11879.62 6668.82l470.73 1.87c44.78,-166.69 15.21,-1048.55 14.94,-1288.07l117.16 0.03 133.77 -0.13 -0.63 1276.55 523.26 -0.34 0.03 -1525.67 -1267.12 -0.52 7.86 1536.28z"/>
     <path class="fil8" d="M9036.84 5159.45l0.26 1503.52 769.95 7.12 10.91 -259.45 -139.09 -3.61 -117.24 1.82c0.53,-232.9 28.41,-1130.66 -16.03,-1288.86l-497.45 0.71 -11.31 38.75z"/>
     <path class="fil8" d="M10044.25 5159.45l0.26 1503.52 769.95 7.12 10.91 -259.45 -139.09 -3.61 -117.24 1.82c0.53,-232.9 28.41,-1130.66 -16.03,-1288.86l-497.45 0.71 -11.31 38.75z"/>
     <path class="fil8" d="M11577.82 6671.8c33.39,-110.57 33.23,-927.28 0.23,-1038.85l-500.51 0.5 -6.46 1037.93 506.74 0.42z"/>
     <path class="fil3" d="M14671.1 7184.12l126.89 0.79 5.32 -2064.95 -131.68 0.64c31.26,120.59 30.94,1947.52 -0.53,2063.52z"/>
     <path class="fil9" d="M8786.39 6655.06l0.47 19.69 117.79 -6.48 4.12 -1520.05c-31.19,-46.68 -46.58,-26.46 -121.28,-31.45l-0.84 19.59 -0.26 1518.7z"/>
     <path class="fil5" d="M13151.58 6672.99l102.27 -4.56 5.19 -1465.12c-16.63,-103.46 21.86,-42.31 -40.22,-81.26l-66.66 -3.64 -0.58 1554.58z"/>
     <path class="fil3" d="M9678.87 6407.03l-6.98 -1300.8 -126.29 13.76c44.44,158.2 16.56,1055.96 16.03,1288.86l117.24 -1.82z"/>
     <path class="fil3" d="M10686.28 6407.03l-6.99 -1300.8 -126.28 13.76c44.44,158.2 16.56,1055.96 16.03,1288.86l117.24 -1.82z"/>
     <path class="fil3" d="M12350.35 6670.69l126.54 0.87 5.56 -1288.91 -117.16 -0.03c0.27,239.52 29.84,1121.38 -14.94,1288.07z"/>
     <polygon class="fil8" points="11595.11,5383.31 11577.84,5119.65 11121.08,5120.12 11077.54,5106.26 11069.47,5382.44 "/>
     <polygon class="fil1" points="14033.63,6414.02 14033.42,5377.48 13910.72,5383.84 13910.78,6408.67 "/>
     <polygon class="fil3" points="8133.23,6408.9 8133.26,5382.44 8016.07,5382.31 8016.28,6408.93 "/>
     <path class="fil9" d="M11577.82 6671.8l126.12 -0.63 7.75 -1037.54 -133.64 -0.68c33,111.57 33.16,928.28 -0.23,1038.85z"/>
     <path class="fil10" d="M11841.66 5137.12l-0.16 1361.43c-0.21,14.86 -3.16,82.13 -2.26,90.88 12.73,122.49 -7.75,48.79 40.38,79.39l-7.86 -1536.28 1267.12 0.52 -0.03 1525.67 -523.26 0.34c71.01,37.66 461.98,19.93 535.99,13.92l0.58 -1554.58 -1272.44 -5.14 -38.06 23.85z"/>
     <polygon class="fil3" points="7240.45,5895.84 7352.19,5895.76 7352.11,5125.87 7239.11,5126.11 "/>
     <polygon class="fil11" points="8786.86,6674.75 8786.39,6655.06 7507.73,6655.19 7508.31,5136.41 8786.65,5136.36 8787.49,5116.77 7494.31,5120.1 7486.11,6671.3 "/>
     <path class="fil3" d="M7224.74 6671.43l130.45 0.03 7.33 -524.74 -137.64 -0.08c31.15,112.65 31.63,412.48 -0.14,524.79z"/>
     <polygon class="fil3" points="6597.97,5892.07 6587.72,5379.88 6469.93,5382.57 6479.36,5889.44 "/>
     <path class="fil5" d="M6459.57 6671.46l111.47 -1.11c48.79,-93.1 17,-395.61 16.81,-521.6l-105.88 4.16c0.08,150.82 29.47,384.44 -22.4,518.55z"/>
     <polygon class="fil9" points="11595.11,5383.31 11712.48,5382.36 11709.24,5120.15 11577.84,5119.65 "/>
     <path class="fil1" d="M9807.05 6670.09l89.14 1.68c58.49,-27.2 39.07,1.48 41.02,-104.43 0.87,-48.63 -1.79,-103.24 -1.93,-152.87l-117.32 -3.83 -10.91 259.45z"/>
     <path class="fil1" d="M10814.46 6670.09l89.14 1.68c58.49,-27.2 39.07,1.48 41.02,-104.43 0.87,-48.63 -1.8,-103.24 -1.93,-152.87l-117.32 -3.83 -10.91 259.45z"/>
     <polygon class="fil12" points="7100.97,6150.15 7100.99,5892.81 6983.88,5907.18 6983.52,6137.99 "/>
     <path class="fil13" d="M5947.56 6655.43l43.36 18.56 468.65 -2.53c51.87,-134.11 22.48,-367.73 22.4,-518.55 -47.78,95.34 -22.59,382.78 -22.59,502.57l-511.82 -0.05z"/>
     <path class="fil14" d="M7352.19 5895.76c28.38,-45.07 10.88,53.14 23.14,-65.97l-6.3 -723.48 -131.32 5.56 1.4 14.24 113 -0.24 0.08 769.89z"/>
    </g>
    <g>
     <path class="fil8" d="M9659.81 8456.43l3.25 -758.51 144.41 3.32 106.04 -3.03 0.03 254.49 262.66 2.32 0.02 -257.05 150.61 1.61 100.03 -1.5 0.4 772.87 516.06 -5.8 8.31 -1541.92 -524.74 0.55 -13.94 254.99 -242.6 1.98 0.05 250.93 -106.01 3.77 -133.88 0.08c-14.44,-22.94 -11.96,-1.87 -20.53,-46.05l-1.34 -199.85c-93.23,0.21 -186.04,15.71 -245.66,-22.24l-0.13 -245.06 -515.23 -1.1 0.19 1534.88 512 0.32z"/>
     <path class="fil8" d="M8262.12 7184.02l107.33 0.5 -12.25 508.05 -234.12 -3.45 -5.59 -504.39 144.63 -0.71zm-669.36 1287.06l524 -5.93 7.64 -510.5 128.05 -0.61 114.63 0.4 1.21 519.18 519.05 -0.16 -0.06 -1551.36 -1294.34 1.74 -0.18 1547.24z"/>
     <path class="fil8" d="M6047.35 8473.64l1283.38 -0.08 7.17 -779.25 -487.02 0.08 -28.02 0.18 -3.79 499.7 -246.56 22.09c-12.07,-58.33 -40.88,-939.48 10.47,-1031.71l134 0 105.88 6.83 0.08 250.48 518.97 -0.69 0 -519.04 -1294.48 -0.05 -0.08 1551.46z"/>
     <path class="fil8" d="M11202.61 8473.43l1305.52 0.05 -11.89 -524.6 -523.68 -1.61c-0.06,62.42 24.69,226.92 -23.54,253.06 -49.08,26.63 -185.98,11.36 -224.12,-8.3l-3.54 -487.02 510.77 -7.69 9.62 -261.82 -520.23 -1.29 0.11 -242.71 770 -7.22 5.4 -250.9 -1294.66 -11.15 0.24 1551.2z"/>
     <polygon class="fil15" points="6047.35,8473.64 6047.43,6922.18 5941.13,6925.84 5941.26,8465.34 "/>
     <polygon class="fil16" points="11202.61,8473.43 11202.37,6922.23 11096.41,6927.68 11096.39,8467.95 "/>
     <polygon class="fil4" points="7592.76,8471.08 7592.94,6923.84 7492.57,6922.49 7492.49,8473.77 "/>
     <path class="fil2" d="M9082.41 8473.51l54.91 0.61 -10.02 -1552.81 -89.38 0.81 -0.13 1205.31c-0.08,156.33 -28.81,299.48 44.62,346.08z"/>
     <polygon class="fil4" points="10427.26,8470.95 10426.86,7698.08 10326.83,7699.58 10326.65,8473.46 "/>
     <polygon class="fil15" points="8368.29,8473.62 8367.08,7954.44 8252.45,7954.04 8261.86,8467.95 "/>
     <polygon class="fil17" points="6717.01,8199.31 6819.07,8194.27 6822.86,7694.57 6850.88,7694.39 7337.9,7694.31 6719.17,7692.07 "/>
     <polygon class="fil15" points="8123.08,7689.12 8357.2,7692.57 8369.45,7184.52 8262.12,7184.02 8262.02,7689.3 "/>
     <polygon class="fil17" points="10064.39,7435.45 10170.4,7431.68 10170.35,7180.75 10412.95,7178.77 10426.89,6923.78 10326.54,6922.15 10326.36,7172.29 10068.52,7178.9 "/>
     <path class="fil18" d="M9137.32 8474.12l392.52 4.98c9.94,0.02 60.26,0.87 66.61,0.13 74.75,-8.75 27.07,6.04 63.36,-22.8l-512 -0.32 -0.19 -1534.88 -20.32 0.08 10.02 1552.81z"/>
     <path class="fil17" d="M11724.9 8192.03c38.14,19.66 175.04,34.93 224.12,8.3 48.23,-26.14 23.48,-190.64 23.54,-253.06l-100.9 1.95 0.16 253.28 -146.92 -10.47z"/>
     <polygon class="fil2" points="9913.54,7952.7 9913.51,7698.21 9807.47,7701.24 9807.74,7954.78 "/>
     <polygon class="fil4" points="6822.94,7441.96 6822.86,7191.48 6716.98,7184.65 6717.09,7441.25 "/>
     <path class="fil19" d="M6819.07 8194.27l-102.06 5.04 -134.03 -4.88 0 -1009.78c-51.35,92.23 -22.54,973.38 -10.47,1031.71l246.56 -22.09z"/>
     <path class="fil20" d="M9930.51 7435.53l-11.12 -263.77 -256.41 -4.37c59.62,37.95 152.43,22.45 245.66,22.24l1.34 199.85c8.57,44.18 6.09,23.11 20.53,46.05z"/>
    </g>
   </g>
   <g>
   </g>
   <g style="clip-path:url(#id0)">
    <g id="_2650022196352">
    </g>
    <g style="clip-path:url(#id1)">
     <image x="2026.68" y="1251.79" width="17249.54" height="31362.79" xlink:href="download_Images\download_ImgID1.png"/>
    </g>
    <g style="clip-path:url(#id2)">
    </g>
   </g>
   <polygon class="fil21" points="7560.58,10733.61 13380.12,10733.61 13380.12,14427.45 7560.58,14427.45 "/>
  </g>
 </g>
</svg>
