<?xml version="1.0" encoding="UTF-8"?>
<!DOCTYPE svg PUBLIC "-//W3C//DTD SVG 1.1//EN" "http://www.w3.org/Graphics/SVG/1.1/DTD/svg11.dtd">
<!-- Creator: CorelDRAW 2019 (64-Bit) -->
<svg xmlns="http://www.w3.org/2000/svg" xml:space="preserve" width="677.333mm" height="380.388mm" version="1.1" style="shape-rendering:geometricPrecision; text-rendering:geometricPrecision; image-rendering:optimizeQuality; fill-rule:evenodd; clip-rule:evenodd"
viewBox="0 0 67733.3 38038.8"
 xmlns:xlink="http://www.w3.org/1999/xlink"
 xmlns:xodm="http://www.corel.com/coreldraw/odm/2003">
 <defs>
  <style type="text/css">
   <![CDATA[
    .str0 {stroke:#373435;stroke-width:20;stroke-miterlimit:22.9256}
    .fil21 {fill:none}
    .fil0 {fill:#0F0D22}
    .fil7 {fill:#3A7D7B}
    .fil14 {fill:#3A807C}
    .fil1 {fill:#63EFD3}
    .fil5 {fill:#64EDD4}
    .fil3 {fill:#64EFD5}
    .fil9 {fill:#66EFD5}
    .fil12 {fill:#68EFD6}
    .fil20 {fill:#878590}
    .fil19 {fill:#888693}
    .fil10 {fill:#A6C7C6}
    .fil13 {fill:#B3F7E9}
    .fil6 {fill:#B60B6B}
    .fil11 {fill:#C3C2C9}
    .fil18 {fill:#DA87B5}
    .fil17 {fill:#EE0B82}
    .fil16 {fill:#EF0983}
    .fil15 {fill:#EF0A81}
    .fil2 {fill:#F00882}
    .fil4 {fill:#F10983}
    .fil8 {fill:#FEFEFE}
   ]]>
  </style>
     <clipPath id="id0">
      <path d="M7360.56 10672.43l5819.54 0 0 3693.84 -5819.54 0 0 -3693.84z"/>
     </clipPath>
      <clipPath id="id1">
       <path d="M7360.56 10672.43l5819.54 0 0 3693.84 -5819.54 0 0 -3693.84z"/>
      </clipPath>
      <clipPath id="id2">
       <path d="M7360.56 10672.43l5819.54 0 0 3693.84 -5819.54 0 0 -3693.84z"/>
      </clipPath>
 </defs>
 <g id="Capa_x0020_1">
  <metadata id="CorelCorpID_0Corel-Layer"/>
  <g id="_2651476525040">
   <rect class="fil0 str0" x="-4.26" y="-0.02" width="67733.28" height="38038.84"/>
   <g>
    <g>
     <path class="fil1" d="M14883.51 9003.54l507.58 22.62 0.05 613.8 313.5 2.9c-0.39,-125.81 -0.52,-248.69 -0.37,-371.54 0.45,-361.4 107.2,-301.62 -507.71,-301.59l-0.13 -1746.18 -313.05 -5.59 0.13 1785.58z"/>
     <polygon class="fil2" points="4338.99,6373.21 4685.26,6380.01 4685.33,4344.85 4601.52,4338.1 4467.54,4339.26 4338.91,4342.66 "/>
     <polygon class="fil2" points="4689,7216.22 4354.43,7218.23 4354.33,8960.26 4670.28,8960.53 "/>
     <polygon class="fil3" points="15893.29,6303.23 15897.61,6387.29 16200.73,6387.18 16207.45,6303.31 16206.32,4601.26 15893.29,4601.26 "/>
     <path class="fil4" d="M4856.9 7180.69c23.25,32.58 269.09,15.87 325.15,15.87l0 -804.29 -335.06 0.21 9.91 788.21z"/>
     <polygon class="fil5" points="15391.09,7185.15 15469.29,7198.43 15625.81,7196.27 15704.67,7188.1 15704.27,6403.29 15391.06,6394.3 "/>
     <polygon class="fil2" points="4846.33,9650.87 5198.66,9649.21 5197.84,9035.44 4851.89,9030.51 "/>
     <polygon class="fil1" points="15704.14,4560.27 15704.25,3926.18 15402,3914.97 15401.95,4563.25 "/>
     <polygon class="fil2" points="8088.22,9645.21 8439.87,9651.56 8440.16,9226.24 8088.01,9228.11 "/>
     <polygon class="fil2" points="11820.88,9647.68 12178.19,9647.95 12178.03,9237.68 11820.98,9229.75 "/>
     <polygon class="fil2" points="8793.2,4311.79 9134.61,4311.82 9144.16,3904.22 8791.27,3904.11 "/>
     <path class="fil2" d="M5276.55 4306.26l320.91 -0.16c26.01,-93.99 26.15,-307.97 -0.03,-402.04l-320.99 0c-31.73,95.71 -31.63,306.36 0.11,402.2z"/>
     <polygon class="fil1" points="7067.08,9639.8 7145.23,9653.19 7391.29,9650.98 7391.26,9226.48 7066.95,9229.93 "/>
     <polygon class="fil1" points="7771.66,4311.79 8085.8,4311.77 8095.34,3915.1 7770.11,3915.1 "/>
     <path class="fil6" d="M4689 7216.22l-18.72 1744.31 -315.95 -0.27 0.1 -1742.03 334.57 -2.01zm167.9 -35.53l-512.53 0.74 -11.13 1794.44 352.52 4.79 3.24 -1764.44 509.82 1.35c13.15,-142.57 5.53,-284.33 5.53,-423.37l-22.3 -401.93 0 804.29c-56.06,0 -301.9,16.71 -325.15,-15.87z"/>
     <polygon class="fil5" points="11820.88,9647.68 11820.98,9229.75 11636.45,9228.38 11636.42,9645.55 "/>
     <path class="fil7" d="M15704.14 4560.27l-302.19 2.98 0.05 -648.28c-46.68,74.68 -25.96,589.9 -11.34,659.27 95.37,20.85 238.2,28.34 313.48,-13.97z"/>
     <g>
      <path class="fil8" d="M13833.4 5316.3l128.02 5.01 -0.1 1025.33 -127.71 6.2 -122.85 -5.35 -0.06 -1024.83 122.7 -6.36zm-635.49 1293.98l763.56 0.05 -0.07 250.82 -513.28 1.03 1.56 257.13 1021.4 3.63c31.47,-116 31.79,-1942.93 0.53,-2063.52 -267.85,-3.59 -1075.62,34.13 -1273.18,-14.34l-0.52 1565.2z"/>
      <path class="fil8" d="M7933.24 5321.26l133.69 0.08 0.07 1026.52 -133.79 -0.14 -116.95 0.03 -0.21 -1026.62 117.19 0.13zm653.13 1272.62l0.26 -1518.7 -1278.34 0.05 -0.58 1518.78 1278.66 -0.13z"/>
      <path class="fil8" d="M6387.7 5318.7l134.01 6.51 -1.06 499.65 -122.7 6.03 -118.61 -2.63 -9.43 -506.87 117.79 -2.69zm-640.16 1275.55l511.82 0.05c0,-119.79 -25.19,-407.23 22.59,-502.57l105.88 -4.16 133.9 9.54 1.35 513.19 501.64 -0.05c31.77,-112.31 31.29,-412.14 0.14,-524.79l-123.91 3.51 -117.45 -12.16 0.36 -230.81 117.11 -14.37 139.46 3.03 -1.34 -769.73 -1.4 -14.24 -1286.3 8.41 -3.85 1535.15z"/>
      <path class="fil8" d="M11679.6 6607.64l470.73 1.87c44.78,-166.69 15.21,-1048.55 14.94,-1288.07l117.16 0.03 133.77 -0.13 -0.63 1276.55 523.26 -0.34 0.03 -1525.67 -1267.12 -0.52 7.86 1536.28z"/>
      <path class="fil8" d="M8836.82 5098.27l0.26 1503.52 769.95 7.12 10.91 -259.45 -139.09 -3.61 -117.24 1.82c0.53,-232.9 28.41,-1130.66 -16.03,-1288.86l-497.45 0.71 -11.31 38.75z"/>
      <path class="fil8" d="M9844.23 5098.27l0.26 1503.52 769.95 7.12 10.91 -259.45 -139.09 -3.61 -117.24 1.82c0.53,-232.9 28.41,-1130.66 -16.03,-1288.86l-497.45 0.71 -11.31 38.75z"/>
      <path class="fil8" d="M11377.8 6610.62c33.39,-110.57 33.23,-927.28 0.23,-1038.85l-500.51 0.5 -6.46 1037.93 506.74 0.42z"/>
      <path class="fil3" d="M14471.08 7122.94l126.89 0.79 5.32 -2064.95 -131.68 0.64c31.26,120.59 30.94,1947.52 -0.53,2063.52z"/>
      <path class="fil9" d="M8586.37 6593.88l0.47 19.69 117.79 -6.48 4.12 -1520.05c-31.19,-46.68 -46.58,-26.46 -121.28,-31.45l-0.84 19.59 -0.26 1518.7z"/>
      <path class="fil5" d="M12951.56 6611.81l102.27 -4.56 5.19 -1465.12c-16.63,-103.46 21.86,-42.31 -40.22,-81.26l-66.66 -3.64 -0.58 1554.58z"/>
      <path class="fil3" d="M9478.85 6345.85l-6.98 -1300.8 -126.29 13.76c44.44,158.2 16.56,1055.96 16.03,1288.86l117.24 -1.82z"/>
      <path class="fil3" d="M10486.26 6345.85l-6.99 -1300.8 -126.28 13.76c44.44,158.2 16.56,1055.96 16.03,1288.86l117.24 -1.82z"/>
      <path class="fil3" d="M12150.33 6609.51l126.54 0.87 5.56 -1288.91 -117.16 -0.03c0.27,239.52 29.84,1121.38 -14.94,1288.07z"/>
      <polygon class="fil8" points="11395.09,5322.13 11377.82,5058.47 10921.06,5058.94 10877.52,5045.08 10869.45,5321.26 "/>
      <polygon class="fil1" points="13833.61,6352.84 13833.4,5316.3 13710.7,5322.66 13710.76,6347.49 "/>
      <polygon class="fil3" points="7933.21,6347.72 7933.24,5321.26 7816.05,5321.13 7816.26,6347.75 "/>
      <path class="fil9" d="M11377.8 6610.62l126.12 -0.63 7.75 -1037.54 -133.64 -0.68c33,111.57 33.16,928.28 -0.23,1038.85z"/>
      <path class="fil10" d="M11641.64 5075.94l-0.16 1361.43c-0.21,14.86 -3.16,82.13 -2.26,90.88 12.73,122.49 -7.75,48.79 40.38,79.39l-7.86 -1536.28 1267.12 0.52 -0.03 1525.67 -523.26 0.34c71.01,37.66 461.98,19.93 535.99,13.92l0.58 -1554.58 -1272.44 -5.14 -38.06 23.85z"/>
      <polygon class="fil3" points="7040.43,5834.66 7152.17,5834.58 7152.09,5064.69 7039.09,5064.93 "/>
      <polygon class="fil11" points="8586.84,6613.57 8586.37,6593.88 7307.71,6594.01 7308.29,5075.23 8586.63,5075.18 8587.47,5055.59 7294.29,5058.92 7286.09,6610.12 "/>
      <path class="fil3" d="M7024.72 6610.25l130.45 0.03 7.33 -524.74 -137.64 -0.08c31.15,112.65 31.63,412.48 -0.14,524.79z"/>
      <polygon class="fil3" points="6397.95,5830.89 6387.7,5318.7 6269.91,5321.39 6279.34,5828.26 "/>
      <path class="fil5" d="M6259.55 6610.28l111.47 -1.11c48.79,-93.1 17,-395.61 16.81,-521.6l-105.88 4.16c0.08,150.82 29.47,384.44 -22.4,518.55z"/>
      <polygon class="fil9" points="11395.09,5322.13 11512.46,5321.18 11509.22,5058.97 11377.82,5058.47 "/>
      <path class="fil1" d="M9607.03 6608.91l89.14 1.68c58.49,-27.2 39.07,1.48 41.02,-104.43 0.87,-48.63 -1.79,-103.24 -1.93,-152.87l-117.32 -3.83 -10.91 259.45z"/>
      <path class="fil1" d="M10614.44 6608.91l89.14 1.68c58.49,-27.2 39.07,1.48 41.02,-104.43 0.87,-48.63 -1.8,-103.24 -1.93,-152.87l-117.32 -3.83 -10.91 259.45z"/>
      <polygon class="fil12" points="6900.95,6088.97 6900.97,5831.63 6783.86,5846 6783.5,6076.81 "/>
      <path class="fil13" d="M5747.54 6594.25l43.36 18.56 468.65 -2.53c51.87,-134.11 22.48,-367.73 22.4,-518.55 -47.78,95.34 -22.59,382.78 -22.59,502.57l-511.82 -0.05z"/>
      <path class="fil14" d="M7152.17 5834.58c28.38,-45.07 10.88,53.14 23.14,-65.97l-6.3 -723.48 -131.32 5.56 1.4 14.24 113 -0.24 0.08 769.89z"/>
     </g>
     <g>
      <path class="fil8" d="M9459.79 8395.25l3.25 -758.51 144.41 3.32 106.04 -3.03 0.03 254.49 262.66 2.32 0.02 -257.05 150.61 1.61 100.03 -1.5 0.4 772.87 516.06 -5.8 8.31 -1541.92 -524.74 0.55 -13.94 254.99 -242.6 1.98 0.05 250.93 -106.01 3.77 -133.88 0.08c-14.44,-22.94 -11.96,-1.87 -20.53,-46.05l-1.34 -199.85c-93.23,0.21 -186.04,15.71 -245.66,-22.24l-0.13 -245.06 -515.23 -1.1 0.19 1534.88 512 0.32z"/>
      <path class="fil8" d="M8062.1 7122.84l107.33 0.5 -12.25 508.05 -234.12 -3.45 -5.59 -504.39 144.63 -0.71zm-669.36 1287.06l524 -5.93 7.64 -510.5 128.05 -0.61 114.63 0.4 1.21 519.18 519.05 -0.16 -0.06 -1551.36 -1294.34 1.74 -0.18 1547.24z"/>
      <path class="fil8" d="M5847.33 8412.46l1283.38 -0.08 7.17 -779.25 -487.02 0.08 -28.02 0.18 -3.79 499.7 -246.56 22.09c-12.07,-58.33 -40.88,-939.48 10.47,-1031.71l134 0 105.88 6.83 0.08 250.48 518.97 -0.69 0 -519.04 -1294.48 -0.05 -0.08 1551.46z"/>
      <path class="fil8" d="M11002.59 8412.25l1305.52 0.05 -11.89 -524.6 -523.68 -1.61c-0.06,62.42 24.69,226.92 -23.54,253.06 -49.08,26.63 -185.98,11.36 -224.12,-8.3l-3.54 -487.02 510.77 -7.69 9.62 -261.82 -520.23 -1.29 0.11 -242.71 770 -7.22 5.4 -250.9 -1294.66 -11.15 0.24 1551.2z"/>
      <polygon class="fil15" points="5847.33,8412.46 5847.41,6861 5741.11,6864.66 5741.24,8404.16 "/>
      <polygon class="fil16" points="11002.59,8412.25 11002.35,6861.05 10896.39,6866.5 10896.37,8406.77 "/>
      <polygon class="fil4" points="7392.74,8409.9 7392.92,6862.66 7292.55,6861.31 7292.47,8412.59 "/>
      <path class="fil2" d="M8882.39 8412.33l54.91 0.61 -10.02 -1552.81 -89.38 0.81 -0.13 1205.31c-0.08,156.33 -28.81,299.48 44.62,346.08z"/>
      <polygon class="fil4" points="10227.24,8409.77 10226.84,7636.9 10126.81,7638.4 10126.63,8412.28 "/>
      <polygon class="fil15" points="8168.27,8412.44 8167.06,7893.26 8052.43,7892.86 8061.84,8406.77 "/>
      <polygon class="fil17" points="6516.99,8138.13 6619.05,8133.09 6622.84,7633.39 6650.86,7633.21 7137.88,7633.13 6519.15,7630.89 "/>
      <polygon class="fil15" points="7923.06,7627.94 8157.18,7631.39 8169.43,7123.34 8062.1,7122.84 8062,7628.12 "/>
      <polygon class="fil17" points="9864.37,7374.27 9970.38,7370.5 9970.33,7119.57 10212.93,7117.59 10226.87,6862.6 10126.52,6860.97 10126.34,7111.11 9868.5,7117.72 "/>
      <path class="fil18" d="M8937.3 8412.94l392.52 4.98c9.94,0.02 60.26,0.87 66.61,0.13 74.75,-8.75 27.07,6.04 63.36,-22.8l-512 -0.32 -0.19 -1534.88 -20.32 0.08 10.02 1552.81z"/>
      <path class="fil17" d="M11524.88 8130.85c38.14,19.66 175.04,34.93 224.12,8.3 48.23,-26.14 23.48,-190.64 23.54,-253.06l-100.9 1.95 0.16 253.28 -146.92 -10.47z"/>
      <polygon class="fil2" points="9713.52,7891.52 9713.49,7637.03 9607.45,7640.06 9607.72,7893.6 "/>
      <polygon class="fil4" points="6622.92,7380.78 6622.84,7130.3 6516.96,7123.47 6517.07,7380.07 "/>
      <path class="fil19" d="M6619.05 8133.09l-102.06 5.04 -134.03 -4.88 0 -1009.78c-51.35,92.23 -22.54,973.38 -10.47,1031.71l246.56 -22.09z"/>
      <path class="fil20" d="M9730.49 7374.35l-11.12 -263.77 -256.41 -4.37c59.62,37.95 152.43,22.45 245.66,22.24l1.34 199.85c8.57,44.18 6.09,23.11 20.53,46.05z"/>
     </g>
    </g>
    <g>
    </g>
    <g style="clip-path:url(#id0)">
     <g>
     </g>
     <g style="clip-path:url(#id1)">
      <image x="1826.66" y="1190.61" width="17249.54" height="31362.79" xlink:href="download´2_Images\download´2_ImgID1.png"/>
     </g>
     <g style="clip-path:url(#id2)">
     </g>
    </g>
    <polygon class="fil21" points="7360.56,10672.43 13180.1,10672.43 13180.1,14366.27 7360.56,14366.27 "/>
   </g>
  </g>
 </g>
</svg>
