<?xml version="1.0" encoding="UTF-8"?>
<!DOCTYPE svg PUBLIC "-//W3C//DTD SVG 1.1//EN" "http://www.w3.org/Graphics/SVG/1.1/DTD/svg11.dtd">
<!-- Creator: CorelDRAW 2019 (64-Bit) -->
<svg xmlns="http://www.w3.org/2000/svg" xml:space="preserve" width="210mm" height="297mm" version="1.1" style="shape-rendering:geometricPrecision; text-rendering:geometricPrecision; image-rendering:optimizeQuality; fill-rule:evenodd; clip-rule:evenodd"
viewBox="0 0 21000 29700"
 xmlns:xlink="http://www.w3.org/1999/xlink"
 xmlns:xodm="http://www.corel.com/coreldraw/odm/2003">
 <defs>
  <style type="text/css">
   <![CDATA[
    .str0 {stroke:#373435;stroke-width:20;stroke-miterlimit:22.9256}
    .fil21 {fill:#FEFEFE}
    .fil23 {fill:#FAFCFA}
    .fil32 {fill:#EAE9E6}
    .fil34 {fill:#E5E4E3}
    .fil46 {fill:#DEDDDB}
    .fil26 {fill:#DCDBD9}
    .fil42 {fill:#D7D7D6}
    .fil22 {fill:#D4D4D4}
    .fil37 {fill:#C5C5C4}
    .fil44 {fill:#BFBCBC}
    .fil41 {fill:#B8B8B9}
    .fil43 {fill:#B0B1B3}
    .fil25 {fill:#ACABAE}
    .fil38 {fill:#9E9EA1}
    .fil31 {fill:#949497}
    .fil30 {fill:#8F8F91}
    .fil33 {fill:#868687}
    .fil45 {fill:#828383}
    .fil28 {fill:#747577}
    .fil29 {fill:#706F71}
    .fil24 {fill:#6F7074}
    .fil36 {fill:#666869}
    .fil35 {fill:#636467}
    .fil40 {fill:#626267}
    .fil39 {fill:#5D5E61}
    .fil27 {fill:#58585C}
    .fil0 {fill:#0F0D22}
    .fil7 {fill:#3A7D7B}
    .fil14 {fill:#3A807C}
    .fil1 {fill:#63EFD3}
    .fil5 {fill:#64EDD4}
    .fil3 {fill:#64EFD5}
    .fil9 {fill:#66EFD5}
    .fil12 {fill:#68EFD6}
    .fil20 {fill:#878590}
    .fil19 {fill:#888693}
    .fil10 {fill:#A6C7C6}
    .fil13 {fill:#B3F7E9}
    .fil6 {fill:#B60B6B}
    .fil11 {fill:#C3C2C9}
    .fil18 {fill:#DA87B5}
    .fil17 {fill:#EE0B82}
    .fil16 {fill:#EF0983}
    .fil15 {fill:#EF0A81}
    .fil2 {fill:#F00882}
    .fil4 {fill:#F10983}
    .fil8 {fill:#FEFEFE}
   ]]>
  </style>
 </defs>
 <g id="Capa_x0020_1">
  <metadata id="CorelCorpID_0Corel-Layer"/>
  <rect class="fil0 str0" x="-23370.91" y="-4169.42" width="67733.28" height="38038.84"/>
  <g id="_2650035264288">
   <path class="fil1" d="M-8483.14 4834.14l507.58 22.62 0.05 613.8 313.5 2.9c-0.39,-125.81 -0.52,-248.69 -0.37,-371.54 0.45,-361.4 107.2,-301.62 -507.71,-301.59l-0.13 -1746.18 -313.05 -5.59 0.13 1785.58z"/>
   <polygon class="fil2" points="-19027.66,2203.81 -18681.39,2210.61 -18681.32,175.45 -18765.13,168.7 -18899.11,169.86 -19027.74,173.26 "/>
   <polygon class="fil2" points="-18677.65,3046.82 -19012.22,3048.83 -19012.32,4790.86 -18696.37,4791.13 "/>
   <polygon class="fil3" points="-7473.36,2133.83 -7469.04,2217.89 -7165.92,2217.78 -7159.2,2133.91 -7160.33,431.86 -7473.36,431.86 "/>
   <path class="fil4" d="M-18509.75 3011.29c23.25,32.58 269.09,15.87 325.15,15.87l0 -804.29 -335.06 0.21 9.91 788.21z"/>
   <polygon class="fil5" points="-7975.56,3015.75 -7897.36,3029.03 -7740.84,3026.87 -7661.98,3018.7 -7662.38,2233.89 -7975.59,2224.9 "/>
   <polygon class="fil2" points="-18520.32,5481.47 -18167.99,5479.81 -18168.81,4866.04 -18514.76,4861.11 "/>
   <polygon class="fil1" points="-7662.51,390.87 -7662.4,-243.22 -7964.65,-254.43 -7964.7,393.85 "/>
   <polygon class="fil2" points="-15278.43,5475.81 -14926.78,5482.16 -14926.49,5056.84 -15278.64,5058.71 "/>
   <polygon class="fil2" points="-11545.77,5478.28 -11188.46,5478.55 -11188.62,5068.28 -11545.67,5060.35 "/>
   <polygon class="fil2" points="-14573.45,142.39 -14232.04,142.42 -14222.49,-265.18 -14575.38,-265.29 "/>
   <path class="fil2" d="M-18090.1 136.86l320.91 -0.16c26.01,-93.99 26.15,-307.97 -0.03,-402.04l-320.99 0c-31.73,95.71 -31.63,306.36 0.11,402.2z"/>
   <polygon class="fil1" points="-16299.57,5470.4 -16221.42,5483.79 -15975.36,5481.58 -15975.39,5057.08 -16299.7,5060.53 "/>
   <polygon class="fil1" points="-15594.99,142.39 -15280.85,142.37 -15271.31,-254.3 -15596.54,-254.3 "/>
   <path class="fil6" d="M-18677.65 3046.82l-18.72 1744.31 -315.95 -0.27 0.1 -1742.03 334.57 -2.01zm167.9 -35.53l-512.53 0.74 -11.13 1794.44 352.52 4.79 3.24 -1764.44 509.82 1.35c13.15,-142.57 5.53,-284.33 5.53,-423.37l-22.3 -401.93 0 804.29c-56.06,0 -301.9,16.71 -325.15,-15.87z"/>
   <polygon class="fil5" points="-11545.77,5478.28 -11545.67,5060.35 -11730.2,5058.98 -11730.23,5476.15 "/>
   <path class="fil7" d="M-7662.51 390.87l-302.19 2.98 0.05 -648.28c-46.68,74.68 -25.96,589.9 -11.34,659.27 95.37,20.85 238.2,28.34 313.48,-13.97z"/>
   <g>
    <path class="fil8" d="M-9533.25 1146.9l128.02 5.01 -0.1 1025.33 -127.71 6.2 -122.85 -5.35 -0.06 -1024.83 122.7 -6.36zm-635.49 1293.98l763.56 0.05 -0.07 250.82 -513.28 1.03 1.56 257.13 1021.4 3.63c31.47,-116 31.79,-1942.93 0.53,-2063.52 -267.85,-3.59 -1075.62,34.13 -1273.18,-14.34l-0.52 1565.2z"/>
    <path class="fil8" d="M-15433.41 1151.86l133.69 0.08 0.07 1026.52 -133.79 -0.14 -116.95 0.03 -0.21 -1026.62 117.19 0.13zm653.13 1272.62l0.26 -1518.7 -1278.34 0.05 -0.58 1518.78 1278.66 -0.13z"/>
    <path class="fil8" d="M-16978.95 1149.3l134.01 6.51 -1.06 499.65 -122.7 6.03 -118.61 -2.63 -9.43 -506.87 117.79 -2.69zm-640.16 1275.55l511.82 0.05c0,-119.79 -25.19,-407.23 22.59,-502.57l105.88 -4.16 133.9 9.54 1.35 513.19 501.64 -0.05c31.77,-112.31 31.29,-412.14 0.14,-524.79l-123.91 3.51 -117.45 -12.16 0.36 -230.81 117.11 -14.37 139.46 3.03 -1.34 -769.73 -1.4 -14.24 -1286.3 8.41 -3.85 1535.15z"/>
    <path class="fil8" d="M-11687.05 2438.24l470.73 1.87c44.78,-166.69 15.21,-1048.55 14.94,-1288.07l117.16 0.03 133.77 -0.13 -0.63 1276.55 523.26 -0.34 0.03 -1525.67 -1267.12 -0.52 7.86 1536.28z"/>
    <path class="fil8" d="M-14529.83 928.87l0.26 1503.52 769.95 7.12 10.91 -259.45 -139.09 -3.61 -117.24 1.82c0.53,-232.9 28.41,-1130.66 -16.03,-1288.86l-497.45 0.71 -11.31 38.75z"/>
    <path class="fil8" d="M-13522.42 928.87l0.26 1503.52 769.95 7.12 10.91 -259.45 -139.09 -3.61 -117.24 1.82c0.53,-232.9 28.41,-1130.66 -16.03,-1288.86l-497.45 0.71 -11.31 38.75z"/>
    <path class="fil8" d="M-11988.85 2441.22c33.39,-110.57 33.23,-927.28 0.23,-1038.85l-500.51 0.5 -6.46 1037.93 506.74 0.42z"/>
    <path class="fil3" d="M-8895.57 2953.54l126.89 0.79 5.32 -2064.95 -131.68 0.64c31.26,120.59 30.94,1947.52 -0.53,2063.52z"/>
    <path class="fil9" d="M-14780.28 2424.48l0.47 19.69 117.79 -6.48 4.12 -1520.05c-31.19,-46.68 -46.58,-26.46 -121.28,-31.45l-0.84 19.59 -0.26 1518.7z"/>
    <path class="fil5" d="M-10415.09 2442.41l102.27 -4.56 5.19 -1465.12c-16.63,-103.46 21.86,-42.31 -40.22,-81.26l-66.66 -3.64 -0.58 1554.58z"/>
    <path class="fil3" d="M-13887.8 2176.45l-6.98 -1300.8 -126.29 13.76c44.44,158.2 16.56,1055.96 16.03,1288.86l117.24 -1.82z"/>
    <path class="fil3" d="M-12880.39 2176.45l-6.99 -1300.8 -126.28 13.76c44.44,158.2 16.56,1055.96 16.03,1288.86l117.24 -1.82z"/>
    <path class="fil3" d="M-11216.32 2440.11l126.54 0.87 5.56 -1288.91 -117.16 -0.03c0.27,239.52 29.84,1121.38 -14.94,1288.07z"/>
    <polygon class="fil8" points="-11971.56,1152.73 -11988.83,889.07 -12445.59,889.54 -12489.13,875.68 -12497.2,1151.86 "/>
    <polygon class="fil1" points="-9533.04,2183.44 -9533.25,1146.9 -9655.95,1153.26 -9655.89,2178.09 "/>
    <polygon class="fil3" points="-15433.44,2178.32 -15433.41,1151.86 -15550.6,1151.73 -15550.39,2178.35 "/>
    <path class="fil9" d="M-11988.85 2441.22l126.12 -0.63 7.75 -1037.54 -133.64 -0.68c33,111.57 33.16,928.28 -0.23,1038.85z"/>
    <path class="fil10" d="M-11725.01 906.54l-0.16 1361.43c-0.21,14.86 -3.16,82.13 -2.26,90.88 12.73,122.49 -7.75,48.79 40.38,79.39l-7.86 -1536.28 1267.12 0.52 -0.03 1525.67 -523.26 0.34c71.01,37.66 461.98,19.93 535.99,13.92l0.58 -1554.58 -1272.44 -5.14 -38.06 23.85z"/>
    <polygon class="fil3" points="-16326.22,1665.26 -16214.48,1665.18 -16214.56,895.29 -16327.56,895.53 "/>
    <polygon class="fil11" points="-14779.81,2444.17 -14780.28,2424.48 -16058.94,2424.61 -16058.36,905.83 -14780.02,905.78 -14779.18,886.19 -16072.36,889.52 -16080.56,2440.72 "/>
    <path class="fil3" d="M-16341.93 2440.85l130.45 0.03 7.33 -524.74 -137.64 -0.08c31.15,112.65 31.63,412.48 -0.14,524.79z"/>
    <polygon class="fil3" points="-16968.7,1661.49 -16978.95,1149.3 -17096.74,1151.99 -17087.31,1658.86 "/>
    <path class="fil5" d="M-17107.1 2440.88l111.47 -1.11c48.79,-93.1 17,-395.61 16.81,-521.6l-105.88 4.16c0.08,150.82 29.47,384.44 -22.4,518.55z"/>
    <polygon class="fil9" points="-11971.56,1152.73 -11854.19,1151.78 -11857.43,889.57 -11988.83,889.07 "/>
    <path class="fil1" d="M-13759.62 2439.51l89.14 1.68c58.49,-27.2 39.07,1.48 41.02,-104.43 0.87,-48.63 -1.79,-103.24 -1.93,-152.87l-117.32 -3.83 -10.91 259.45z"/>
    <path class="fil1" d="M-12752.21 2439.51l89.14 1.68c58.49,-27.2 39.07,1.48 41.02,-104.43 0.87,-48.63 -1.8,-103.24 -1.93,-152.87l-117.32 -3.83 -10.91 259.45z"/>
    <polygon class="fil12" points="-16465.7,1919.57 -16465.68,1662.23 -16582.79,1676.6 -16583.15,1907.41 "/>
    <path class="fil13" d="M-17619.11 2424.85l43.36 18.56 468.65 -2.53c51.87,-134.11 22.48,-367.73 22.4,-518.55 -47.78,95.34 -22.59,382.78 -22.59,502.57l-511.82 -0.05z"/>
    <path class="fil14" d="M-16214.48 1665.18c28.38,-45.07 10.88,53.14 23.14,-65.97l-6.3 -723.48 -131.32 5.56 1.4 14.24 113 -0.24 0.08 769.89z"/>
   </g>
   <g>
    <path class="fil8" d="M-13906.86 4225.85l3.25 -758.51 144.41 3.32 106.04 -3.03 0.03 254.49 262.66 2.32 0.02 -257.05 150.61 1.61 100.03 -1.5 0.4 772.87 516.06 -5.8 8.31 -1541.92 -524.74 0.55 -13.94 254.99 -242.6 1.98 0.05 250.93 -106.01 3.77 -133.88 0.08c-14.44,-22.94 -11.96,-1.87 -20.53,-46.05l-1.34 -199.85c-93.23,0.21 -186.04,15.71 -245.66,-22.24l-0.13 -245.06 -515.23 -1.1 0.19 1534.88 512 0.32z"/>
    <path class="fil8" d="M-15304.55 2953.44l107.33 0.5 -12.25 508.05 -234.12 -3.45 -5.59 -504.39 144.63 -0.71zm-669.36 1287.06l524 -5.93 7.64 -510.5 128.05 -0.61 114.63 0.4 1.21 519.18 519.05 -0.16 -0.06 -1551.36 -1294.34 1.74 -0.18 1547.24z"/>
    <path class="fil8" d="M-17519.32 4243.06l1283.38 -0.08 7.17 -779.25 -487.02 0.08 -28.02 0.18 -3.79 499.7 -246.56 22.09c-12.07,-58.33 -40.88,-939.48 10.47,-1031.71l134 0 105.88 6.83 0.08 250.48 518.97 -0.69 0 -519.04 -1294.48 -0.05 -0.08 1551.46z"/>
    <path class="fil8" d="M-12364.06 4242.85l1305.52 0.05 -11.89 -524.6 -523.68 -1.61c-0.06,62.42 24.69,226.92 -23.54,253.06 -49.08,26.63 -185.98,11.36 -224.12,-8.3l-3.54 -487.02 510.77 -7.69 9.62 -261.82 -520.23 -1.29 0.11 -242.71 770 -7.22 5.4 -250.9 -1294.66 -11.15 0.24 1551.2z"/>
    <polygon class="fil15" points="-17519.32,4243.06 -17519.24,2691.6 -17625.54,2695.26 -17625.41,4234.76 "/>
    <polygon class="fil16" points="-12364.06,4242.85 -12364.3,2691.65 -12470.26,2697.1 -12470.28,4237.37 "/>
    <polygon class="fil4" points="-15973.91,4240.5 -15973.73,2693.26 -16074.1,2691.91 -16074.18,4243.19 "/>
    <path class="fil2" d="M-14484.26 4242.93l54.91 0.61 -10.02 -1552.81 -89.38 0.81 -0.13 1205.31c-0.08,156.33 -28.81,299.48 44.62,346.08z"/>
    <polygon class="fil4" points="-13139.41,4240.37 -13139.81,3467.5 -13239.84,3469 -13240.02,4242.88 "/>
    <polygon class="fil15" points="-15198.38,4243.04 -15199.59,3723.86 -15314.22,3723.46 -15304.81,4237.37 "/>
    <polygon class="fil17" points="-16849.66,3968.73 -16747.6,3963.69 -16743.81,3463.99 -16715.79,3463.81 -16228.77,3463.73 -16847.5,3461.49 "/>
    <polygon class="fil15" points="-15443.59,3458.54 -15209.47,3461.99 -15197.22,2953.94 -15304.55,2953.44 -15304.65,3458.72 "/>
    <polygon class="fil17" points="-13502.28,3204.87 -13396.27,3201.1 -13396.32,2950.17 -13153.72,2948.19 -13139.78,2693.2 -13240.13,2691.57 -13240.31,2941.71 -13498.15,2948.32 "/>
    <path class="fil18" d="M-14429.35 4243.54l392.52 4.98c9.94,0.02 60.26,0.87 66.61,0.13 74.75,-8.75 27.07,6.04 63.36,-22.8l-512 -0.32 -0.19 -1534.88 -20.32 0.08 10.02 1552.81z"/>
    <path class="fil17" d="M-11841.77 3961.45c38.14,19.66 175.04,34.93 224.12,8.3 48.23,-26.14 23.48,-190.64 23.54,-253.06l-100.9 1.95 0.16 253.28 -146.92 -10.47z"/>
    <polygon class="fil2" points="-13653.13,3722.12 -13653.16,3467.63 -13759.2,3470.66 -13758.93,3724.2 "/>
    <polygon class="fil4" points="-16743.73,3211.38 -16743.81,2960.9 -16849.69,2954.07 -16849.58,3210.67 "/>
    <path class="fil19" d="M-16747.6 3963.69l-102.06 5.04 -134.03 -4.88 0 -1009.78c-51.35,92.23 -22.54,973.38 -10.47,1031.71l246.56 -22.09z"/>
    <path class="fil20" d="M-13636.16 3204.95l-11.12 -263.77 -256.41 -4.37c59.62,37.95 152.43,22.45 245.66,22.24l1.34 199.85c8.57,44.18 6.09,23.11 20.53,46.05z"/>
   </g>
  </g>
  <g id="_2650035265056">
  </g>
  <g id="_2651477569056">
   <path class="fil21" d="M-13029.17 8717.79c0,-54.42 15.95,-75.2 72.33,-75.2 100.98,-0.21 180.63,-4.88 279.4,5.01 32.63,63.55 16.67,503.47 16.67,603.59 0,33.47 -8.55,52.33 -21.77,70.41l-274.3 2.99c-57.72,0 -72.33,-16.39 -72.33,-73.4l0 -533.4zm-101.63 -350.02c0,188.53 16.96,171.09 -172.59,172.07 30.22,73.05 -13.91,733.78 7.89,890.86 66.51,7.17 106.13,-13.41 141.2,26.27 27.52,31.15 14.48,82.8 17.56,136.9 99.16,9.68 396.69,-11.24 439.98,13.85l15.23 0.4c24,22.37 8.93,-25.27 19.87,40.57l-0.88 127.44c0.01,51.59 5.96,105.85 -11.28,155.02 -82.38,14.86 -291.37,25.04 -348.06,-13.85l-4.93 -140.31c-31.54,-12.73 -169.43,-6.29 -218.4,-6.28 -9.3,0 -23.26,-0.21 -32.14,1.07 -55.42,8.02 -9.99,188.86 -28.53,293.9l145.78 3.39c20.35,49.48 3.03,90.59 14.65,141.58 97.64,21.55 476.52,5.27 602.8,5.27l7.59 -144.41 144.77 -6.84 2.1 -1848.37c-71.54,7.03 -149.01,2.47 -222.08,1.45 -108.01,-1.5 -34.32,30.25 -64.93,150.03l-455.6 -0.01z"/>
   <path class="fil21" d="M-14130.38 8717.79c0,-57.36 14.69,-73.95 71.82,-73.95l274.76 4.1c12.45,19.57 18.22,35.51 18.22,69.85l0 533.4c0,34.16 -6.02,50.3 -18.21,70.06l-273.71 2.39c-58.03,0 -72.88,-14.02 -72.88,-72.45l0 -533.4zm482.66 876.41c-2.27,-65.82 -9.42,-116.03 22.93,-163.04l134.08 -0.91c4.03,-111.57 8.28,-847.38 -4.9,-909.53l-113.15 -3.64c-30.41,-9.99 -10.34,5.2 -17.64,-18.6l-11.84 -34.06c-2.31,-22.49 5.34,-65.42 -3.2,-91.29l-596.48 2.55 -19.1 142.4c-41.14,31.47 -35.18,18.5 -143.9,18.5l2.64 894.89c179.31,0 155.15,-1.26 160.84,160.81l589.72 1.92z"/>
   <path class="fil21" d="M-11280.48 8828.3c15.91,97.41 6.43,268.03 6.43,380.56 0,72.78 -9.92,343.58 6.1,393.06l298.51 4.83 2.36 -906.41c-43.47,-18.38 -134.61,7.89 -163.33,-22.19 -24.78,-21.92 -11.16,-102.24 -15.62,-140.61l-584.45 0 0.84 1052.44 271.63 -0.12c5.93,-125.58 1.03,-262.61 1.03,-389.47 0,-59.33 -15.31,-343.14 16.46,-371.83 32.07,-28.95 113.72,-21.91 143.6,-10.33 2.69,1.05 6.3,7.1 8.23,4.79 1.98,-2.37 6.15,2.76 8.21,5.28z"/>
   <path class="fil21" d="M-15332.87 7907.54c31.88,115.14 -20.64,1474.68 8.18,1518.51 15.43,12.06 -9.95,1.03 16.56,6.88 71.34,15.76 56.49,-26.65 138.96,32.66l2.61 126.83 593.05 0.22 -0.05 -270.71 -457.6 -1.66c-35.88,-50.41 -24.25,-77.15 -24.2,-153.74 0.25,-398.75 10.07,-881.69 -0.53,-1260.92l-276.98 1.93z"/>
   <polygon class="fil21" points="-12192.52,9590 -11922.05,9589.86 -11921.97,8692.76 -11957.77,8690.25 -12194.4,8690.25 "/>
   <path class="fil22" d="M-15332.87 7907.54l276.98 -1.93c10.6,379.23 0.78,862.17 0.53,1260.92 -0.05,76.59 -11.68,103.33 24.2,153.74l457.6 1.66 0.05 270.71 -593.05 -0.22 -2.61 -126.83c-82.47,-59.31 -67.62,-16.9 -138.96,-32.66 -26.51,-5.85 -1.13,5.18 -16.56,-6.88 -28.82,-43.83 23.7,-1403.37 -8.18,-1518.51zm-1.62 1541.96c40.33,6.24 104.29,-8.13 132.07,15.01 24.95,26.31 13.39,92.29 14.57,133.2 29.47,12.84 563.51,14.55 618.7,4.75 14.95,-38.68 12.57,-261.77 -1.14,-304.14 -85.43,-16.33 -424.68,12.67 -450.9,-14.94 -22.04,-23.2 -10.21,-1141.31 -10.02,-1268.32 0.21,-144.57 41.92,-121.82 -203.17,-123.5l-75.78 1.01c-29.08,8.34 -11.43,-7.43 -22.71,14.97 -1.25,1.47 -2.48,2.3 -2.76,5.09 -0.28,2.87 -2.15,4.13 -2.49,5.42 -10.35,39.04 -3.79,716.34 -3.79,757.41 0,94.72 -8.38,740.52 7.42,774.04z"/>
   <path class="fil23" d="M-11926.85 8502.29c10.77,-55.85 16.17,-236.43 -5.01,-283.93l-262.56 -0.54c-9.55,46.74 -12.65,245.05 3.98,284.2l263.59 0.27z"/>
   <path class="fil24" d="M-15332.87 7907.54c11.28,-22.4 -6.37,-6.63 22.71,-14.97l75.78 -1.01c245.09,1.68 203.38,-21.07 203.17,123.5 -0.19,127.01 -12.02,1245.12 10.02,1268.32 26.22,27.61 365.47,-1.39 450.9,14.94 13.71,42.37 16.09,265.46 1.14,304.14 -55.19,9.8 -589.23,8.09 -618.7,-4.75 -10.6,-20.8 -7.38,-30.43 -6.9,-58.49 0.13,-7.69 1.19,-28.38 0.62,-34.71l-12.72 -35.37c-46.55,-25.12 -98.34,11.3 -127.64,-19.64 -15.8,-33.52 -7.42,-679.32 -7.42,-774.04 0,-41.07 -6.56,-718.37 3.79,-757.41 0.34,-1.29 2.21,-2.55 2.49,-5.42 0.28,-2.79 1.51,-3.62 2.76,-5.09zm126.02 1561.6l1.47 140.6c55.12,17.97 606.64,19.29 650.52,-0.28 8.72,-47.05 14.7,-296.86 -7.36,-319.21 -29.63,-28.65 -385.01,-9.73 -454.87,-9.73l0.54 -1342.18c0.1,-94.38 -43.54,-73.65 -167.01,-73.64 -211.41,0.02 -171.05,-52.3 -171.05,387.43 0,158.63 -10.28,1143.28 7.36,1213.55l140.4 3.46z"/>
   <path class="fil25" d="M-13305.88 10065.68c13.49,26.89 37.58,17.2 130.17,22.81 27.63,56.78 -6.33,108.66 27.51,142.6 28.55,16.31 547.97,11.88 616.64,4.08 13.69,-27.12 10.48,-90.73 8.7,-128.4 15.26,-34.13 -13.59,-16.19 39.39,-22.64 38.14,-4.65 81.42,18.03 104.67,-18.72 14.63,-32.16 16.37,-1679.51 5.73,-1840.63l-15.12 -8.48 -2.1 1848.37 -144.77 6.84 -7.59 144.41c-126.28,0 -505.16,16.28 -602.8,-5.27 -11.62,-50.99 5.7,-92.1 -14.65,-141.58l-145.78 -3.39z"/>
   <path class="fil26" d="M-11737.06 9606.75c75.62,-14.45 226.91,16.38 293.95,-7.76 15.07,-10.81 11.49,-68.71 11.3,-85.26l-0.3 -592.95c-0.79,-106.07 0.48,-96.89 151.63,-92.48 -2.06,-2.52 -6.23,-7.65 -8.21,-5.28 -1.93,2.31 -5.54,-3.74 -8.23,-4.79 -29.88,-11.58 -111.53,-18.62 -143.6,10.33 -31.77,28.69 -16.46,312.5 -16.46,371.83 0,126.86 4.9,263.89 -1.03,389.47l-271.63 0.12 -0.84 -1052.44 584.45 0c4.46,38.37 -9.16,118.69 15.62,140.61 28.72,30.08 119.86,3.81 163.33,22.19 -9.84,-18.34 11,-25.3 -76.68,-22.59 -34.07,1.06 -62.38,6.29 -77.06,-26.63 -21.37,-47.93 17.99,-122.31 -32.73,-135.99l-579.6 3.28c-18.11,75.31 -16.19,981.65 -3.91,1088.34z"/>
   <path class="fil27" d="M-12711.49 8351.43c34.85,-42.07 -6.77,-116.98 26.09,-149.6 30.95,-23.55 264.05,-20.46 304.49,-3.86l7.84 26.81c10.64,161.12 8.9,1808.47 -5.73,1840.63 -23.25,36.75 -66.53,14.07 -104.67,18.72 -52.98,6.45 -24.13,-11.49 -39.39,22.64 91.3,-1.21 173.66,21.98 174.35,-84.39 1.64,-250.37 7.97,-1721.75 -4.45,-1824.36 -46.06,-31.76 -94.92,-21.17 -163.61,-21.16 -54.28,0.01 -141.93,-5.36 -185.09,8.71 -14.1,42.38 -7.72,113.11 -9.83,165.86z"/>
   <path class="fil28" d="M-10958.63 8681c15.4,87.8 3.8,640.21 4.97,815.71 0.29,42.71 8.23,78.32 -15.78,110.04l-298.51 -4.83c-16.02,-49.48 -6.1,-320.28 -6.1,-393.06 0,-112.53 9.48,-283.15 -6.43,-380.56 -151.15,-4.41 -152.42,-13.59 -151.63,92.48l0.3 592.95c0.19,16.55 3.77,74.45 -11.3,85.26 -67.04,24.14 -218.33,-6.69 -293.95,7.76 -4.49,-8.76 -3.17,-0.26 -8.54,-24.78 -10.86,-49.55 2.9,-1043.56 3.79,-1067.69 -1.32,1.82 -2.76,2.63 -3.13,5.97 -0.38,3.39 -2.4,4.61 -2.86,6.21 -12,41.44 -5.04,486.55 -5.04,530 0,125.5 -15.82,450.9 4.19,553.45 43.22,16.95 280.37,14.51 327.17,-0.11l4.75 -751.65 127.24 -1.7c3.47,122.47 -8.47,693.24 5.97,753.89 39.98,14.87 287.87,14.91 327.7,-0.08 14.43,-66.28 9.95,-901.29 -2.81,-929.26z"/>
   <path class="fil26" d="M-12194.4 8690.25l236.63 0 35.8 2.51 -0.08 897.1 -270.47 0.14 -1.88 -899.75zm-5.06 -11.6c-15.28,48.66 -14.96,883.31 -0.02,926.94l296.52 -4.33c13.98,-37.82 14.35,-876.72 -0.17,-925.03l-296.33 2.42z"/>
   <path class="fil29" d="M-12199.46 8678.65l296.33 -2.42c14.52,48.31 14.15,887.21 0.17,925.03l-296.52 4.33c-14.94,-43.63 -15.26,-878.28 0.02,-926.94zm-14.68 931.09c41.96,18.23 280.8,15.49 327.63,0.71 16.98,-61.28 6.06,-389.45 6.06,-477.79 0,-555.48 47.33,-486.01 -170.46,-486 -49.14,0 -114.52,-3.71 -161.44,2.69 -9.71,89.77 -13.64,895.02 -1.79,960.39z"/>
   <path class="fil30" d="M-11741.81 8514.28c-0.89,24.13 -14.65,1018.14 -3.79,1067.69 5.37,24.52 4.05,16.02 8.54,24.78 -12.28,-106.69 -14.2,-1013.03 3.91,-1088.34l579.6 -3.28c50.72,13.68 11.36,88.06 32.73,135.99 14.68,32.92 42.99,27.69 77.06,26.63 87.68,-2.71 66.84,4.25 76.68,22.59l-2.36 906.41c24.01,-31.72 16.07,-67.33 15.78,-110.04 -1.17,-175.5 10.43,-727.91 -4.97,-815.71l-11.83 -27.42c-187.82,-6.4 -114.93,25.51 -135.88,-144.09 -71.94,-24.92 -500.98,-10.53 -614.37,-10.53 -39.29,8.64 -16.96,6.17 -21.1,15.32z"/>
   <path class="fil31" d="M-13490.71 9430.25c-25.63,52.95 -101.17,-8.67 -135.73,32.34 -23.12,27.44 -6.68,75.87 -11.15,110.68 -3.57,27.8 5.32,15.43 -10.13,20.93 -19.82,14.76 -114.92,6.49 -147.31,6.49l-460.99 -2.36c-8.37,-42.25 5.73,-100.64 -12.82,-135.47 -38.93,-20.29 -98,-9.06 -140.68,-11.73 5.79,25.31 -11.02,5.94 22.32,15.33l104.18 2.6c17.68,41.18 2.91,94.82 11.56,140.11 63.49,13.98 446.71,4.87 569.85,6.33 109.32,1.3 72.95,-18.93 80.08,-147.15l141.54 -5.53c21.03,-100.73 7.62,-356.92 7.62,-474.09 0,-156.09 6.24,-324.98 -4.44,-478.95 -32.57,-17.86 -102.44,-10.31 -149.59,-11.3 7.3,23.8 -12.77,8.61 17.64,18.6l113.15 3.64c13.18,62.15 8.93,797.96 4.9,909.53z"/>
   <path class="fil32" d="M-12696.05 8670.86c29.96,17.9 24.44,20.95 24.18,63.32 -0.18,28.42 -0.47,56.76 -0.47,85.21 0,53.63 0,107.25 0,160.87 0,381.77 57.34,322.87 -250.89,327.59 -58.4,0.89 -60.03,-0.4 -64.49,-17.89 -9.99,-5.67 -7.85,11.36 -18.19,-21.83 0,-80.9 -8.92,-552.48 6.74,-589.91 35.2,-21.3 250.77,-18.08 303.12,-7.36zm-333.12 46.93l0 533.4c0,57.01 14.61,73.4 72.33,73.4l274.3 -2.99c13.22,-18.08 21.77,-36.94 21.77,-70.41 0,-100.12 15.96,-540.04 -16.67,-603.59 -98.77,-9.89 -178.42,-5.22 -279.4,-5.01 -56.38,0 -72.33,20.78 -72.33,75.2z"/>
   <path class="fil33" d="M-12702.88 9893.48c-20.47,26.5 -17.2,19.49 -58.6,18.86 -25.72,-0.4 -51.06,-0.7 -76.82,-0.7 -46.48,-0.01 -104.79,-7.05 -146.67,4.39 6.06,22.15 254.59,16.43 279.06,2.56 37.1,-21.78 24.89,-57.01 24.84,-133.99 -0.04,-58.83 0.23,-117.7 -0.46,-176.48l-15.23 -0.4c-152.75,-14.19 -311.58,8.61 -462.33,-9.62 -3.25,-113.29 24.86,-145.87 -77.61,-143.94 -103.29,1.94 -70.06,-15.79 -70.06,-228.37 0,-227.67 -5,-491.53 2.75,-711.83 -8.64,4.67 -14.57,-6.7 -16.58,50.85 -5.42,154.79 -3.22,851.77 6.3,900.03l139.71 5.19 3 135.58c49.07,23.89 303,11.47 375.68,10.83 108.15,-0.96 92.38,-15.62 91.5,91.88 -0.49,58.44 -8.14,132.19 1.52,185.16z"/>
   <path class="fil34" d="M-13809.72 8673.17c34.3,3.92 31.38,11.14 32.28,52.24 2.24,102.78 3.45,515.98 -5.43,559.65 -44.44,27.36 -98.42,17.95 -156.1,17.94 -203.88,-0.06 -171.34,46.45 -171.34,-322.74 0,-348.86 -34.95,-316.08 154.41,-316.04 34.52,0.01 120.59,-5.85 146.18,8.95zm-320.66 44.62l0 533.4c0,58.43 14.85,72.45 72.88,72.45l273.71 -2.39c12.19,-19.76 18.21,-35.9 18.21,-70.06l0 -533.4c0,-34.34 -5.77,-50.28 -18.22,-69.85l-274.76 -4.1c-57.13,0 -71.82,16.59 -71.82,73.95z"/>
   <path class="fil22" d="M-14409.52 9451.13c42.68,2.67 101.75,-8.56 140.68,11.73 18.55,34.83 4.45,93.22 12.82,135.47l460.99 2.36c32.39,0 127.49,8.27 147.31,-6.49l-589.72 -1.92c-5.69,-162.07 18.47,-160.81 -160.84,-160.81l-2.64 -894.89c108.72,0 102.76,12.97 143.9,-18.5l19.1 -142.4 596.48 -2.55c-17.87,-12.23 -15.53,-10.71 -68.76,-10.06 -25.47,0.32 -50.9,0.24 -76.37,0.24 -96.88,0 -413.56,-6.95 -467.87,6.33 -20.41,42.06 5.83,91.94 -17.15,136.49l-133.12 8.26c-24.83,116.14 6.48,747.66 -4.81,936.74z"/>
   <path class="fil35" d="M-12531.56 10235.17c-68.67,7.8 -588.09,12.23 -616.64,-4.08 -33.84,-33.94 0.12,-85.82 -27.51,-142.6 -92.59,-5.61 -116.68,4.08 -130.17,-22.81 -18.06,-34.84 -5.83,-280.73 -1.17,-309.13 62.37,-4.88 250.28,-8.53 304.69,6.05 13.16,52.53 -1.38,94.6 17.39,153.43 41.88,-11.44 100.19,-4.4 146.67,-4.39 25.76,0 51.1,0.3 76.82,0.7 41.4,0.63 38.13,7.64 58.6,-18.86l-276.66 2.22c-6.71,-40.38 8,-114.4 -15.49,-140.74 -25.77,-22.21 -271.71,-16.16 -319.69,-6.22 -15.75,49.26 -9.17,126.27 -9.17,179.79 -0.01,195.15 -16.03,176.16 144.88,176.16 7.59,55.57 -5.74,121.69 16.03,140.29 25.76,22 463.47,8.59 561.97,10.49 79.8,1.54 63.46,-7.28 69.45,-20.3z"/>
   <path class="fil33" d="M-14409.52 9451.13c11.29,-189.08 -20.02,-820.6 4.81,-936.74l133.12 -8.26c22.98,-44.55 -3.26,-94.43 17.15,-136.49 54.31,-13.28 370.99,-6.33 467.87,-6.33 25.47,0 50.9,0.08 76.37,-0.24 53.23,-0.65 50.89,-2.17 68.76,10.06 8.54,25.87 0.89,68.8 3.2,91.29l11.84 34.06c4.87,-24.84 12.12,-120.62 -5.8,-138.31 -21.09,-20.84 -600.46,-13.07 -640.07,-1.39l-5.53 137.2 -138.62 4.23c-15.83,60.27 -8.97,721.85 -8.15,895.43 0.23,50.39 2.06,47.57 15.05,55.49z"/>
   <path class="fil36" d="M-13816.11 8687.55l3.92 591.61 -274.74 0.65 3.96 -589.01 266.86 -3.25zm0 0l6.39 -14.38c-54.47,9.98 -250.51,-12.88 -276.74,15.78 -22.36,23.27 -12.01,571.85 -4.91,593.94 44.6,19.34 249.65,21.37 290.49,-4.04 10.81,-14.4 4.78,-381.98 4.78,-450.99l-0.02 -118.29c-9.39,-36.39 4.94,-18.33 -19.99,-22.02z"/>
   <path class="fil25" d="M-13809.72 8673.17l-6.39 14.38c24.93,3.69 10.6,-14.37 19.99,22.02l0.02 118.29c0,69.01 6.03,436.59 -4.78,450.99 -40.84,25.41 -245.89,23.38 -290.49,4.04 -7.1,-22.09 -17.45,-570.67 4.91,-593.94 26.23,-28.66 222.27,-5.8 276.74,-15.78zm0 0c-25.59,-14.8 -111.66,-8.94 -146.18,-8.95 -189.36,-0.04 -154.41,-32.82 -154.41,316.04 0,369.19 -32.54,322.68 171.34,322.74 57.68,0.01 111.66,9.42 156.1,-17.94 8.88,-43.67 7.67,-456.87 5.43,-559.65 -0.9,-41.1 2.02,-48.32 -32.28,-52.24z"/>
   <path class="fil37" d="M-13304.01 8513.96c-7.75,220.3 -2.75,484.16 -2.75,711.83 0,212.58 -33.23,230.31 70.06,228.37 102.47,-1.93 74.36,30.65 77.61,143.94 150.75,18.23 309.58,-4.57 462.33,9.62 -43.29,-25.09 -340.82,-4.17 -439.98,-13.85 -3.08,-54.1 9.96,-105.75 -17.56,-136.9 -35.07,-39.68 -74.69,-19.1 -141.2,-26.27 -21.8,-157.08 22.33,-817.81 -7.89,-890.86 11.14,-10.48 7.82,-13.06 41.41,-17.64 52.29,-7.12 36.52,18.36 105.89,-16.07 7.97,-38.79 9.97,-95.24 -0.9,-131.68 -18.93,5.4 -6.12,-1.73 -10.47,22.15 -4.24,23.24 4.63,62.84 -5.41,104.88 -28.84,0.89 -119.03,-5.27 -131.14,12.48z"/>
   <path class="fil38" d="M-12987.72 9289.96c-13.6,-63.43 -6.76,-352.1 -6.76,-453.63 0,-25.52 0.07,-50.87 -0.44,-76.38 -0.08,-4.43 -0.09,-40.63 0.28,-42.43 8.39,-40.84 -8.17,-15.52 18.99,-33.35l258.52 -0.87c28.99,11.08 10.73,-3.13 20.04,19.49l1.5 582.23c15.72,-14.25 17.3,-6.86 15.95,-76.22 -2.37,-121.54 16.68,-472.81 -16.41,-537.94 -52.35,-10.72 -267.92,-13.94 -303.12,7.36 -15.66,37.43 -6.74,509.01 -6.74,589.91 10.34,33.19 8.2,16.16 18.19,21.83z"/>
   <path class="fil39" d="M-13479.99 9462.82c33.52,-13.1 26.82,-12.02 26.08,-101.53 -2.08,-251.61 6.76,-556.6 0.85,-796.58 -1.07,-43.32 5.24,-42.13 -23.75,-54.93 10.68,153.97 4.44,322.86 4.44,478.95 0,117.17 13.41,373.36 -7.62,474.09z"/>
   <path class="fil40" d="M-12987.72 9289.96c93.39,5.87 208.63,7.56 292.13,-4.94l-1.5 -582.23c-9.31,-22.62 8.95,-8.41 -20.04,-19.49 22.17,66.42 8.16,491.71 8.16,595.07l-274.59 1.15c0,-97.77 -11.9,-536.46 7.91,-595.35 -27.16,17.83 -10.6,-7.49 -18.99,33.35 -0.37,1.8 -0.36,38 -0.28,42.43 0.51,25.51 0.44,50.86 0.44,76.38 0,101.53 -6.84,390.2 6.76,453.63z"/>
   <path class="fil41" d="M-12712.6 8357.8l-406.27 -4.02c-44.58,2.11 -35.59,-3.74 -38.12,20.67l26.19 -6.68 455.6 0.01c30.61,-119.78 -43.08,-151.53 64.93,-150.03 73.07,1.02 150.54,5.58 222.08,-1.45 -11.05,-20.18 6.37,-6.94 -18.31,-16.65 -50.44,0 -242.64,-13.84 -265.97,15.01 -23.51,18.68 -15.96,45.57 -15.11,80.12 1.18,48.18 9.02,49.14 -25.02,63.02z"/>
   <path class="fil41" d="M-12207.28 8209.84c-6.39,46.08 -18.32,282.39 10.83,305.62 16.55,13.19 257.45,6.43 295.84,1.98l0.27 -8.47 -1.54 -18.19 -24.97 11.51 -263.59 -0.27c-16.63,-39.15 -13.53,-237.46 -3.98,-284.2l262.56 0.54 28.16 8.32c-11.12,-30.1 -21.54,-23.69 -62.2,-23.81 -25.44,-0.08 -51.06,0.28 -76.54,0.29 -52.58,0 -105.33,1.09 -157.83,-1.18l-7.01 7.86z"/>
   <path class="fil42" d="M-12984.97 9916.03c-19.89,-5.14 -10.82,9.55 -18,-21.32l-0.45 -86.31c-8.34,-46.54 3.06,-20.84 -23.39,-31.41l4.93 140.31c56.69,38.89 265.68,28.71 348.06,13.85 17.24,-49.17 11.29,-103.43 11.28,-155.02l0.88 -127.44c-10.94,-65.84 4.13,-18.2 -19.87,-40.57 0.69,58.78 0.42,117.65 0.46,176.48 0.05,76.98 12.26,112.21 -24.84,133.99 -24.47,13.87 -273,19.59 -279.06,-2.56z"/>
   <path class="fil43" d="M-13305.88 10065.68c18.54,-105.04 -26.89,-285.88 28.53,-293.9 8.88,-1.28 22.84,-1.07 32.14,-1.07 48.97,-0.01 186.86,-6.45 218.4,6.28 26.45,10.57 15.05,-15.13 23.39,31.41l0.45 86.31c7.18,30.87 -1.89,16.18 18,21.32 -18.77,-58.83 -4.23,-100.9 -17.39,-153.43 -54.41,-14.58 -242.32,-10.93 -304.69,-6.05 -4.66,28.4 -16.89,274.29 1.17,309.13z"/>
   <path class="fil44" d="M-12695.59 9285.02c-83.5,12.5 -198.74,10.81 -292.13,4.94 4.46,17.49 6.09,18.78 64.49,17.89 308.23,-4.72 250.89,54.18 250.89,-327.59 0,-53.62 0,-107.24 0,-160.87 0,-28.45 0.29,-56.79 0.47,-85.21 0.26,-42.37 5.78,-45.42 -24.18,-63.32 33.09,65.13 14.04,416.4 16.41,537.94 1.35,69.36 -0.23,61.97 -15.95,76.22z"/>
   <path class="fil31" d="M-11903.7 8226.68l1.82 264.1 1.54 18.19c18.8,-26.01 13.64,-41.81 13.26,-79.03 -0.3,-28.2 -0.12,-56.47 -0.11,-84.68 0,-61.3 4.73,-95.95 -12.04,-151.47 -42.92,-4.92 -261.65,-18.39 -301.04,8.19 52.5,2.27 105.25,1.18 157.83,1.18 25.48,-0.01 51.1,-0.37 76.54,-0.29 40.66,0.12 51.08,-6.29 62.2,23.81z"/>
   <path class="fil39" d="M-12206.93 8522.17c-21.53,-67.82 -12.37,-146.73 -13.33,-227.67 -0.11,-9.5 -1.52,-35.3 -0.83,-42.78 0.36,-3.85 1.61,-14.69 2.3,-17.36 4.66,-18.15 6.27,-16.21 11.51,-24.52l7.01 -7.86c39.39,-26.58 258.12,-13.11 301.04,-8.19 16.77,55.52 12.04,90.17 12.04,151.47 -0.01,28.21 -0.19,56.48 0.11,84.68 0.38,37.22 5.54,53.02 -13.26,79.03l-0.27 8.47 0.89 18.49c45.57,-17.08 20.5,-323.9 11.96,-353.48 -45.44,-9.07 -185.12,-4.35 -247.98,-4.98 -116.65,-1.16 -82.61,18.41 -84.47,260.97 -0.09,11.92 -1.01,31.95 -0.14,42.97l13.42 40.76z"/>
   <path class="fil28" d="M-12206.93 8522.17c-1.71,25.96 36.72,17.07 62.71,16.81 28.28,-0.28 56.56,-0.18 84.85,-0.18 45.1,0 121.42,3.68 159.65,-2.87l-0.89 -18.49c-38.39,4.45 -279.29,11.21 -295.84,-1.98 -29.15,-23.23 -17.22,-259.54 -10.83,-305.62 -5.24,8.31 -6.85,6.37 -11.51,24.52 -0.69,2.67 -1.94,13.51 -2.3,17.36 -0.69,7.48 0.72,33.28 0.83,42.78 0.96,80.94 -8.2,159.85 13.33,227.67z"/>
   <path class="fil34" d="M-13303.39 8539.84c189.55,-0.98 172.59,16.46 172.59,-172.07l-26.19 6.68c10.87,36.44 8.87,92.89 0.9,131.68 -69.37,34.43 -53.6,8.95 -105.89,16.07 -33.59,4.58 -30.27,7.16 -41.41,17.64z"/>
   <path class="fil45" d="M-12711.49 8351.43l-1.11 6.37c34.04,-13.88 26.2,-14.84 25.02,-63.02 -0.85,-34.55 -8.4,-61.44 15.11,-80.12 23.33,-28.85 215.53,-15.01 265.97,-15.01 24.68,9.71 7.26,-3.53 18.31,16.65l15.12 8.48 -7.84 -26.81c-40.44,-16.6 -273.54,-19.69 -304.49,3.86 -32.86,32.62 8.76,107.53 -26.09,149.6z"/>
   <path class="fil46" d="M-11926.85 8502.29l24.97 -11.51 -1.82 -264.1 -28.16 -8.32c21.18,47.5 15.78,228.08 5.01,283.93z"/>
   <path class="fil46" d="M-13647.72 9594.2c15.45,-5.5 6.56,6.87 10.13,-20.93 4.47,-34.81 -11.97,-83.24 11.15,-110.68 34.56,-41.01 110.1,20.61 135.73,-32.34l-134.08 0.91c-32.35,47.01 -25.2,97.22 -22.93,163.04z"/>
   <path class="fil31" d="M-15206.85 9469.14l12.72 35.37c0.57,6.33 -0.49,27.02 -0.62,34.71 -0.48,28.06 -3.7,37.69 6.9,58.49 -1.18,-40.91 10.38,-106.89 -14.57,-133.2 -27.78,-23.14 -91.74,-8.77 -132.07,-15.01 29.3,30.94 81.09,-5.48 127.64,19.64z"/>
  </g>
 </g>
</svg>
