<?xml version="1.0" encoding="utf-8"?>
<!-- Generator: Adobe Illustrator 16.0.0, SVG Export Plug-In . SVG Version: 6.00 Build 0)  -->
<!DOCTYPE svg PUBLIC "-//W3C//DTD SVG 1.1//EN" "http://www.w3.org/Graphics/SVG/1.1/DTD/svg11.dtd">
<svg version="1.1" xmlns="http://www.w3.org/2000/svg" xmlns:xlink="http://www.w3.org/1999/xlink" x="0px" y="0px" width="750px"
	 height="500px" viewBox="0 0 750 500" enable-background="new 0 0 750 500" xml:space="preserve">
<g id="BACKGROUND">
	<image overflow="visible" width="750" height="500" xlink:href="A39279DD.png" >
	</image>
</g>
<g id="OBJECTS">
	<g>
		<g>
			<g>
				<defs>
					<rect id="SVGID_1_" width="750" height="500"/>
				</defs>
				<clipPath id="SVGID_2_">
					<use xlink:href="#SVGID_1_"  overflow="visible"/>
				</clipPath>
				<g clip-path="url(#SVGID_2_)">
					<g opacity="0.25">
						
							<image overflow="visible" opacity="0.64" width="105" height="102" xlink:href="A39279DF.png"  transform="matrix(1 0 0 1 402 343)">
						</image>
						
							<image overflow="visible" opacity="0.64" width="140" height="136" xlink:href="A39279DA.png"  transform="matrix(1 0 0 1 480 288)">
						</image>
						
							<image overflow="visible" opacity="0.64" width="97" height="102" xlink:href="A39279DB.png"  transform="matrix(1 0 0 1 560 286)">
						</image>
						<image overflow="visible" width="104" height="106" xlink:href="A39279E5.png"  transform="matrix(1 0 0 1 411 316)">
						</image>
						<image overflow="visible" width="104" height="106" xlink:href="A39279E7.png"  transform="matrix(1 0 0 1 481 344)">
						</image>
						
							<image overflow="visible" opacity="0.52" width="96" height="99" xlink:href="A39279EA.png"  transform="matrix(1 0 0 1 459 348)">
						</image>
					</g>
					<g opacity="0.9">
						
							<image overflow="visible" opacity="0.64" width="117" height="111" xlink:href="A39279EB.png"  transform="matrix(1 0 0 1 122 188)">
						</image>
						
							<image overflow="visible" opacity="0.64" width="298" height="283" xlink:href="A39279ED.png"  transform="matrix(1 0 0 1 330 135)">
						</image>
						
							<image overflow="visible" opacity="0.64" width="186" height="177" xlink:href="A42B9CF6.png"  transform="matrix(1 0 0 1 247 261)">
						</image>
						
							<image overflow="visible" opacity="0.64" width="246" height="248" xlink:href="A42B9CF1.png"  transform="matrix(1 0 0 1 74 74)">
						</image>
						
							<image overflow="visible" opacity="0.64" width="158" height="162" xlink:href="A42B9CF2.png"  transform="matrix(1 0 0 1 279 245)">
						</image>
						
							<image overflow="visible" opacity="0.64" width="122" height="120" xlink:href="A42B9CF0.png"  transform="matrix(1 0 0 1 358 300)">
						</image>
						<image overflow="visible" width="112" height="118" xlink:href="A42B9D0E.png"  transform="matrix(1 0 0 1 219 210)">
						</image>
						<image overflow="visible" width="112" height="118" xlink:href="A42B9D11.png"  transform="matrix(1 0 0 1 253 290)">
						</image>
						
							<image overflow="visible" opacity="0.52" width="118" height="119" xlink:href="A42B9D12.png"  transform="matrix(1 0 0 1 230 268)">
						</image>
					</g>
					<g opacity="0.9">
						
							<image overflow="visible" opacity="0.64" width="59" height="57" xlink:href="A42B9D10.png"  transform="matrix(1 0 0 1 224 233)">
						</image>
						
							<image overflow="visible" opacity="0.64" width="85" height="86" xlink:href="A42B9D16.png"  transform="matrix(1 0 0 1 263 243)">
						</image>
						
							<image overflow="visible" opacity="0.64" width="60" height="58" xlink:href="A42B9D13.png"  transform="matrix(1 0 0 1 345 291)">
						</image>
						<image overflow="visible" width="58" height="58" xlink:href="A42B9D35.png"  transform="matrix(1 0 0 1 240 232)">
						</image>
						<image overflow="visible" width="59" height="58" xlink:href="A42B9D37.png"  transform="matrix(1 0 0 1 240 277)">
						</image>
						
							<image overflow="visible" opacity="0.52" width="60" height="58" xlink:href="A42B9D34.png"  transform="matrix(1 0 0 1 234 262)">
						</image>
					</g>
					<g opacity="0.9">
						
							<image overflow="visible" opacity="0.64" width="356" height="347" xlink:href="A42B9D33.png"  transform="matrix(1 0 0 1 293 75)">
						</image>
					</g>
					<g opacity="0.9">
						
							<image overflow="visible" opacity="0.38" width="169" height="177" xlink:href="A42B9D3D.png"  transform="matrix(1 0 0 1 250 261)">
						</image>
						
							<image overflow="visible" opacity="0.64" width="78" height="75" xlink:href="A42B9D3F.png"  transform="matrix(1 0 0 1 254 301)">
						</image>
						
							<image overflow="visible" opacity="0.64" width="203" height="198" xlink:href="A42B9D3C.png"  transform="matrix(1 0 0 1 233 263)">
						</image>
						
							<image overflow="visible" opacity="0.64" width="384" height="374" xlink:href="A42B9D36.png"  transform="matrix(1 0 0 1 175 -85)">
						</image>
						
							<image overflow="visible" opacity="0.64" width="81" height="78" xlink:href="A42B9D09.png"  transform="matrix(1 0 0 1 373 329)">
						</image>
						
							<image overflow="visible" opacity="0.64" width="210" height="199" xlink:href="A42B9D0A.png"  transform="matrix(1 0 0 1 423 253)">
						</image>
					</g>
					
						<image overflow="visible" opacity="0.52" width="187" height="185" xlink:href="A42B9D58.png"  transform="matrix(1 0 0 1 284 179)">
					</image>
					<g opacity="0.9">
						
							<image overflow="visible" opacity="0.64" width="79" height="76" xlink:href="A42B9D67.png"  transform="matrix(1 0 0 1 415 332)">
						</image>
						
							<image overflow="visible" opacity="0.64" width="114" height="115" xlink:href="A42B9D68.png"  transform="matrix(1 0 0 1 468 345)">
						</image>
						
							<image overflow="visible" opacity="0.64" width="138" height="135" xlink:href="A42B9D6B.png"  transform="matrix(1 0 0 1 332 325)">
						</image>
						<image overflow="visible" width="78" height="78" xlink:href="A42B9D69.png"  transform="matrix(1 0 0 1 437 330)">
						</image>
						<image overflow="visible" width="78" height="77" xlink:href="A42B9D6F.png"  transform="matrix(1 0 0 1 437 390)">
						</image>
						
							<image overflow="visible" opacity="0.52" width="81" height="76" xlink:href="A42B9D6A.png"  transform="matrix(1 0 0 1 428 371)">
						</image>
					</g>
				</g>
				<linearGradient id="SVGID_3_" gradientUnits="userSpaceOnUse" x1="375.0532" y1="498.9766" x2="375.0532" y2="217.4376">
					<stop  offset="0.421" style="stop-color:#000075"/>
					<stop  offset="0.4318" style="stop-color:#1D1D85"/>
					<stop  offset="0.4515" style="stop-color:#4C4C9E"/>
					<stop  offset="0.473" style="stop-color:#7777B5"/>
					<stop  offset="0.4958" style="stop-color:#9B9BC9"/>
					<stop  offset="0.5202" style="stop-color:#BABADA"/>
					<stop  offset="0.5467" style="stop-color:#D4D4E8"/>
					<stop  offset="0.5762" style="stop-color:#E7E7F2"/>
					<stop  offset="0.6102" style="stop-color:#F5F5F9"/>
					<stop  offset="0.6528" style="stop-color:#FDFDFE"/>
					<stop  offset="0.7313" style="stop-color:#FFFFFF"/>
				</linearGradient>
				<rect y="233.429" clip-path="url(#SVGID_2_)" fill="url(#SVGID_3_)" width="750.106" height="274.114"/>
				<g clip-path="url(#SVGID_2_)">
					<g>
						<g>
							
								<image overflow="visible" width="1139.608" height="998.169" xlink:href="F701D69F.png"  transform="matrix(1 0 0 1 -192.8315 -448.085)"/>
						</g>
					</g>
					<polygon fill="none" stroke="#FFFFFF" stroke-width="4.2091" stroke-miterlimit="10" points="376.969,508.025 
						904.679,-405.994 -150.741,-405.994 					"/>
				</g>
				<linearGradient id="SVGID_4_" gradientUnits="userSpaceOnUse" x1="375.0532" y1="370.167" x2="375.0532" y2="558.4935">
					<stop  offset="0" style="stop-color:#00003E"/>
					<stop  offset="0.9978" style="stop-color:#2D008F"/>
				</linearGradient>
				<rect y="372.631" clip-path="url(#SVGID_2_)" fill="url(#SVGID_4_)" width="750.106" height="134.912"/>
				<path clip-path="url(#SVGID_2_)" fill="none" stroke="#000000" stroke-width="0.25" d="M0,507.543c69.565,0,139.131,0,208.697,0
					c180.434,0,360.869,0,541.303,0c0-77.869,0-155.737,0-233.605c0-88.798,0-177.597,0-266.395c-180.435,0-360.869,0-541.303,0
					c-69.565,0-139.131,0-208.697,0c0,88.798,0,177.597,0,266.395C0,351.806,0,429.674,0,507.543z"/>
				<g opacity="0.44" clip-path="url(#SVGID_2_)">
					<g>
						<g>
							
								<image overflow="visible" width="426.774" height="392.596" xlink:href="F701D69D.png"  transform="matrix(1 0 0 1 159.5625 324.0566)"/>
						</g>
					</g>
					<g>
						<g>
							<g>
								
									<image overflow="visible" width="267.358" height="240.878" xlink:href="F701D6A3.png"  transform="matrix(1 0 0 1 243.292 417.5605)"/>
							</g>
						</g>
					</g>
				</g>
				
					<radialGradient id="SVGID_5_" cx="242.8359" cy="505.9678" r="138.7129" gradientTransform="matrix(2.3191 0 0 0.3931 -195.5909 176.2541)" gradientUnits="userSpaceOnUse">
					<stop  offset="0" style="stop-color:#000000"/>
					<stop  offset="0.0097" style="stop-color:#070707"/>
					<stop  offset="0.0874" style="stop-color:#3A3A3A"/>
					<stop  offset="0.1705" style="stop-color:#696969"/>
					<stop  offset="0.2571" style="stop-color:#919191"/>
					<stop  offset="0.348" style="stop-color:#B3B3B3"/>
					<stop  offset="0.4444" style="stop-color:#CFCFCF"/>
					<stop  offset="0.5482" style="stop-color:#E4E4E4"/>
					<stop  offset="0.663" style="stop-color:#F3F3F3"/>
					<stop  offset="0.7976" style="stop-color:#FCFCFC"/>
					<stop  offset="1" style="stop-color:#FFFFFF"/>
				</radialGradient>
				<ellipse clip-path="url(#SVGID_2_)" fill="url(#SVGID_5_)" cx="367.57" cy="375.15" rx="321.702" ry="54.525"/>
				<g clip-path="url(#SVGID_2_)">
					<g>
						<g>
							<g>
								
									<image overflow="visible" width="384.818" height="342.609" xlink:href="F701D6A5.png"  transform="matrix(1 0 0 1 184.5625 58.3696)"/>
							</g>
						</g>
						<polygon fill="none" stroke="#FFFFFF" stroke-width="3" stroke-miterlimit="10" points="376.969,366.005 534.375,93.37 
							219.563,93.37 						"/>
					</g>
					<g>
						<g>
							<g>
								
									<image overflow="visible" width="241.239" height="214.779" xlink:href="F701D6A7.png"  transform="matrix(1 0 0 1 256.3511 104.6421)"/>
							</g>
						</g>
					</g>
					<polygon fill="none" stroke="#FFFFFF" stroke-width="1.8807" stroke-miterlimit="10" points="376.969,297.496 475.646,126.583 
						278.292,126.583 					"/>
				</g>
				<g clip-path="url(#SVGID_2_)">
					<defs>
						<rect id="SVGID_6_" y="372.631" width="750.106" height="134.912"/>
					</defs>
					<clipPath id="SVGID_7_">
						<use xlink:href="#SVGID_6_"  overflow="visible"/>
					</clipPath>
					<g opacity="0.19" clip-path="url(#SVGID_7_)">
						<image overflow="visible" width="751" height="138" xlink:href="A42B9D65.png"  transform="matrix(1 0 0 1 0 370)">
						</image>
					</g>
					<g opacity="0.29" clip-path="url(#SVGID_7_)">
						<image overflow="visible" width="1207" height="1071" xlink:href="A42B9D66.png"  transform="matrix(1 0 0 1 -224 158)">
						</image>
					</g>
					<g opacity="0.19" clip-path="url(#SVGID_7_)">
						<image overflow="visible" width="751" height="62" xlink:href="A42B9D64.png"  transform="matrix(1 0 0 1 0 442)">
						</image>
					</g>
					<g opacity="0.19" clip-path="url(#SVGID_7_)">
						<image overflow="visible" width="751" height="62" xlink:href="A42B9D43.png"  transform="matrix(1 0 0 1 0 383)">
						</image>
					</g>
				</g>
			</g>
		</g>
		<radialGradient id="SVGID_8_" cx="375" cy="250" r="427.5464" gradientUnits="userSpaceOnUse">
			<stop  offset="0.4857" style="stop-color:#FFFFFF"/>
			<stop  offset="0.7087" style="stop-color:#6B688F"/>
			<stop  offset="0.8692" style="stop-color:#050041"/>
		</radialGradient>
		<rect fill="url(#SVGID_8_)" width="750" height="500"/>
	</g>
</g>
</svg>
