<?xml version="1.0" encoding="utf-8"?>
<!-- Generator: Adobe Illustrator 16.0.0, SVG Export Plug-In . SVG Version: 6.00 Build 0)  -->
<!DOCTYPE svg PUBLIC "-//W3C//DTD SVG 1.1//EN" "http://www.w3.org/Graphics/SVG/1.1/DTD/svg11.dtd">
<svg version="1.1" id="Capa_1" xmlns="http://www.w3.org/2000/svg" xmlns:xlink="http://www.w3.org/1999/xlink" x="0px" y="0px"
	 width="750px" height="500px" viewBox="0 0 750 500" enable-background="new 0 0 750 500" xml:space="preserve">
<g id="OBJECTS">
	<g>
		
			<radialGradient id="SVGID_1_" cx="-60.2705" cy="605.7722" r="27.7619" gradientTransform="matrix(1.5595 0 0 0.6174 300.2469 -261.7495)" gradientUnits="userSpaceOnUse">
			<stop  offset="0" style="stop-color:#FFFFFF;stop-opacity:0.93"/>
			<stop  offset="0.0624" style="stop-color:#EFEEF1;stop-opacity:0.8719"/>
			<stop  offset="0.5311" style="stop-color:#7B768A;stop-opacity:0.4361"/>
			<stop  offset="0.8527" style="stop-color:#322A48;stop-opacity:0.137"/>
			<stop  offset="1" style="stop-color:#150C2F;stop-opacity:0"/>
		</radialGradient>
		<ellipse opacity="0.3" fill="url(#SVGID_1_)" enable-background="new    " cx="206.255" cy="112.254" rx="46.351" ry="18.349"/>
		
			<radialGradient id="SVGID_2_" cx="-0.0908" cy="673.9958" r="29.1771" gradientTransform="matrix(1 0 0 1 295.0898 -291.2813)" gradientUnits="userSpaceOnUse">
			<stop  offset="0" style="stop-color:#00FFFF;stop-opacity:0.93"/>
			<stop  offset="0.0624" style="stop-color:#01EEF1;stop-opacity:0.8719"/>
			<stop  offset="0.5311" style="stop-color:#0C768A;stop-opacity:0.4361"/>
			<stop  offset="0.8527" style="stop-color:#122A48;stop-opacity:0.137"/>
			<stop  offset="1" style="stop-color:#150C2F;stop-opacity:0"/>
		</radialGradient>
		<circle opacity="0.4" fill="url(#SVGID_2_)" enable-background="new    " cx="294.999" cy="382.714" r="31.234"/>
		
			<radialGradient id="SVGID_3_" cx="321.5723" cy="394.5857" r="31.874" gradientTransform="matrix(1 0 0 1 295.0898 -291.2813)" gradientUnits="userSpaceOnUse">
			<stop  offset="0" style="stop-color:#FF00FF;stop-opacity:0.93"/>
			<stop  offset="0.0296" style="stop-color:#F700F8;stop-opacity:0.9024"/>
			<stop  offset="0.5148" style="stop-color:#7F078D;stop-opacity:0.4512"/>
			<stop  offset="0.8476" style="stop-color:#330A49;stop-opacity:0.1418"/>
			<stop  offset="1" style="stop-color:#150C2F;stop-opacity:0"/>
		</radialGradient>
		<circle opacity="0.3" fill="url(#SVGID_3_)" enable-background="new    " cx="616.662" cy="103.304" r="34.12"/>
		
			<radialGradient id="SVGID_4_" cx="7.126" cy="635.9158" r="31.8741" gradientTransform="matrix(1 0 0 1 295.0898 -291.2813)" gradientUnits="userSpaceOnUse">
			<stop  offset="0" style="stop-color:#FF00FF;stop-opacity:0.93"/>
			<stop  offset="0.0296" style="stop-color:#F700F8;stop-opacity:0.9024"/>
			<stop  offset="0.5148" style="stop-color:#7F078D;stop-opacity:0.4512"/>
			<stop  offset="0.8476" style="stop-color:#330A49;stop-opacity:0.1418"/>
			<stop  offset="1" style="stop-color:#150C2F;stop-opacity:0"/>
		</radialGradient>
		<circle opacity="0.3" fill="url(#SVGID_4_)" enable-background="new    " cx="302.216" cy="344.635" r="34.121"/>
		
			<radialGradient id="SVGID_5_" cx="-177.6841" cy="345.8816" r="31.8745" gradientTransform="matrix(0.683 0 0 1.8125 269.4055 -435.0427)" gradientUnits="userSpaceOnUse">
			<stop  offset="0" style="stop-color:#00FFFF;stop-opacity:0.93"/>
			<stop  offset="0.0624" style="stop-color:#01EEF1;stop-opacity:0.8719"/>
			<stop  offset="0.5311" style="stop-color:#0C768A;stop-opacity:0.4361"/>
			<stop  offset="0.8527" style="stop-color:#122A48;stop-opacity:0.137"/>
			<stop  offset="1" style="stop-color:#150C2F;stop-opacity:0"/>
		</radialGradient>
		<ellipse opacity="0.4" fill="url(#SVGID_5_)" enable-background="new    " cx="148.047" cy="191.868" rx="23.305" ry="61.844"/>
		
			<radialGradient id="SVGID_6_" cx="322.2607" cy="374.6335" r="31.8736" gradientTransform="matrix(0.6407 0 0 1.8125 401.3565 -435.0427)" gradientUnits="userSpaceOnUse">
			<stop  offset="0" style="stop-color:#00FFFF;stop-opacity:0.93"/>
			<stop  offset="0.0624" style="stop-color:#01EEF1;stop-opacity:0.8719"/>
			<stop  offset="0.5311" style="stop-color:#0C768A;stop-opacity:0.4361"/>
			<stop  offset="0.8527" style="stop-color:#122A48;stop-opacity:0.137"/>
			<stop  offset="1" style="stop-color:#150C2F;stop-opacity:0"/>
		</radialGradient>
		<ellipse opacity="0.4" fill="url(#SVGID_6_)" enable-background="new    " cx="607.829" cy="243.98" rx="21.861" ry="61.843"/>
		
			<radialGradient id="SVGID_7_" cx="-511.0649" cy="221.7849" r="31.8755" gradientTransform="matrix(0 -0.6407 1.8125 0 -181.2085 45.3767)" gradientUnits="userSpaceOnUse">
			<stop  offset="0" style="stop-color:#00FFFF;stop-opacity:0.93"/>
			<stop  offset="0.0624" style="stop-color:#01EEF1;stop-opacity:0.8719"/>
			<stop  offset="0.5311" style="stop-color:#0C768A;stop-opacity:0.4361"/>
			<stop  offset="0.8527" style="stop-color:#122A48;stop-opacity:0.137"/>
			<stop  offset="1" style="stop-color:#150C2F;stop-opacity:0"/>
		</radialGradient>
		<ellipse opacity="0.4" fill="url(#SVGID_7_)" enable-background="new    " cx="220.777" cy="372.816" rx="61.843" ry="21.862"/>
		
			<radialGradient id="SVGID_8_" cx="254.2729" cy="1070.238" r="31.8727" gradientTransform="matrix(1.2019 0 0 0.3921 213.7349 -34.716)" gradientUnits="userSpaceOnUse">
			<stop  offset="0" style="stop-color:#FF00FF;stop-opacity:0.93"/>
			<stop  offset="0.0296" style="stop-color:#F700F8;stop-opacity:0.9024"/>
			<stop  offset="0.5148" style="stop-color:#7F078D;stop-opacity:0.4512"/>
			<stop  offset="0.8476" style="stop-color:#330A49;stop-opacity:0.1418"/>
			<stop  offset="1" style="stop-color:#150C2F;stop-opacity:0"/>
		</radialGradient>
		<ellipse opacity="0.3" fill="url(#SVGID_8_)" enable-background="new    " cx="519.346" cy="384.924" rx="41.012" ry="13.38"/>
		
			<radialGradient id="SVGID_9_" cx="143.9253" cy="501.8806" r="50.3173" gradientTransform="matrix(1.2528 0 0 0.7515 194.6329 -268.9744)" gradientUnits="userSpaceOnUse">
			<stop  offset="0" style="stop-color:#FF00FF;stop-opacity:0.93"/>
			<stop  offset="0.0296" style="stop-color:#F700F8;stop-opacity:0.9024"/>
			<stop  offset="0.5148" style="stop-color:#7F078D;stop-opacity:0.4512"/>
			<stop  offset="0.8476" style="stop-color:#330A49;stop-opacity:0.1418"/>
			<stop  offset="1" style="stop-color:#150C2F;stop-opacity:0"/>
		</radialGradient>
		<ellipse opacity="0.3" fill="url(#SVGID_9_)" enable-background="new    " cx="374.943" cy="108.189" rx="67.482" ry="40.479"/>
		
			<radialGradient id="SVGID_10_" cx="157.4556" cy="632.4509" r="29.5623" gradientTransform="matrix(1 0 0 1 295.0898 -291.2813)" gradientUnits="userSpaceOnUse">
			<stop  offset="0" style="stop-color:#FFFFFF;stop-opacity:0.93"/>
			<stop  offset="0.0624" style="stop-color:#EFEEF1;stop-opacity:0.8719"/>
			<stop  offset="0.5311" style="stop-color:#7B768A;stop-opacity:0.4361"/>
			<stop  offset="0.8527" style="stop-color:#322A48;stop-opacity:0.137"/>
			<stop  offset="1" style="stop-color:#150C2F;stop-opacity:0"/>
		</radialGradient>
		<circle opacity="0.3" fill="url(#SVGID_10_)" enable-background="new    " cx="452.545" cy="341.169" r="31.647"/>
	</g>
	<g>
		<g>
			
				<image overflow="visible" enable-background="new    " width="553" height="364" xlink:href="141A69E5.png"  transform="matrix(0.8788 0 0 0.8779 135.207 86.8381)">
			</image>
			<g>
				<g>
					<path fill="#00FFFF" d="M607.503,225.328c-0.639,0-1.155,0.518-1.155,1.154v136.639c0,3.818-3.104,6.924-6.924,6.924H464.668
						c-0.637,0-1.155,0.519-1.155,1.155s0.52,1.155,1.155,1.155h134.756c5.091,0,9.233-4.144,9.233-9.234V226.482
						C608.658,225.844,608.141,225.328,607.503,225.328z"/>
					<path fill="#00FFFF" d="M599.424,98.964h-344.91c-0.638,0-1.155,0.518-1.155,1.155s0.517,1.154,1.155,1.154h344.91
						c3.819,0,6.925,3.106,6.925,6.925v110.419c0,0.638,0.518,1.156,1.155,1.156s1.154-0.519,1.154-1.156v-110.42
						C608.658,103.106,604.516,98.964,599.424,98.964z"/>
					<path fill="#00FFFF" d="M148.372,220.489c0.639,0,1.155-0.517,1.155-1.155V108.198c0-3.818,3.105-6.925,6.925-6.925h10.979
						c0.638,0,1.155-0.518,1.155-1.155c0-0.639-0.517-1.155-1.155-1.155h-10.979c-5.092,0-9.234,4.143-9.234,9.234v111.136
						C147.218,219.971,147.734,220.489,148.372,220.489z"/>
					<path fill="#00FFFF" d="M434.516,348.499h-113.01c-6.063,0-11.763,2.362-16.051,6.649c-4.014,4.015-6.339,9.266-6.619,14.896
						H156.452c-3.818,0-6.925-3.104-6.925-6.924V227.143c0-0.639-0.517-1.154-1.155-1.154c-0.638,0-1.155,0.517-1.155,1.154V363.12
						c0,5.091,4.142,9.234,9.234,9.234h143.51c0.638,0,1.155-0.519,1.155-1.156c0-11.243,9.146-20.389,20.39-20.389h113.01
						c11.242,0,20.391,9.146,20.391,20.389s-9.148,20.391-20.391,20.391h-113.01c-7.79,0-15.005-4.536-18.384-11.56
						c-0.276-0.575-0.968-0.814-1.541-0.539c-0.575,0.275-0.817,0.966-0.54,1.54c3.762,7.817,11.794,12.868,20.466,12.868h113.009
						c12.519,0,22.699-10.185,22.699-22.7S447.032,348.499,434.516,348.499z"/>
				</g>
			</g>
		</g>
		<g>
			
				<image overflow="visible" enable-background="new    " width="571" height="382" xlink:href="141A69E7.png"  transform="matrix(0.8788 0 0 0.878 127.2852 78.9148)">
			</image>
			<g>
				<g>
					<path fill="#FF00FF" d="M155.727,378.125c-7.833,0-14.204-6.373-14.204-14.207c0-0.637-0.517-1.153-1.155-1.153
						c-0.638,0-1.155,0.518-1.155,1.153c0,9.106,7.408,16.517,16.513,16.517c0.639,0,1.155-0.519,1.155-1.155
						S156.365,378.125,155.727,378.125z"/>
					<path fill="#FF00FF" d="M155.727,90.885c-9.106,0-16.514,7.408-16.514,16.515c0,0.638,0.517,1.154,1.155,1.154
						c0.638,0,1.155-0.518,1.155-1.154c0-7.832,6.372-14.205,14.205-14.205c0.638,0,1.155-0.517,1.155-1.155
						C156.883,91.401,156.365,90.885,155.727,90.885z"/>
					<path fill="#FF00FF" d="M600.148,93.194c7.833,0,14.205,6.373,14.205,14.205c0,0.638,0.519,1.154,1.154,1.154
						c0.639,0,1.155-0.518,1.155-1.154c0-9.105-7.407-16.515-16.515-16.515c-0.639,0-1.155,0.517-1.155,1.154
						C598.994,92.677,599.511,93.194,600.148,93.194z"/>
					<path fill="#FF00FF" d="M615.508,362.764c-0.637,0-1.154,0.518-1.154,1.153c0,7.833-6.371,14.206-14.205,14.206
						c-0.638,0-1.154,0.519-1.154,1.155c0,0.639,0.518,1.155,1.154,1.155c9.106,0,16.515-7.408,16.515-16.517
						C616.662,363.281,616.146,362.764,615.508,362.764z"/>
					<path fill="#FF00FF" d="M615.508,114.373c-0.637,0-1.154,0.518-1.154,1.156v19.539c0,0.639,0.519,1.156,1.154,1.156
						c0.639,0,1.155-0.518,1.155-1.156v-19.539C616.662,114.89,616.146,114.373,615.508,114.373z"/>
					<path fill="#FF00FF" d="M366.585,342.055c0-0.639-0.517-1.155-1.156-1.155h-46.072c-20.654,0-26.761,16.88-27.956,21.057
						H188.44c-0.639,0-1.155,0.519-1.155,1.154c0,0.639,0.517,1.155,1.155,1.155h103.854c0.549,0,1.022-0.387,1.131-0.925
						c0.041-0.201,4.344-20.132,25.932-20.132h46.072C366.068,343.211,366.585,342.693,366.585,342.055z"/>
					<path fill="#FF00FF" d="M385.034,340.901h-11.942c-0.638,0-1.154,0.518-1.154,1.155c0,0.637,0.518,1.154,1.154,1.154h11.942
						c0.637,0,1.153-0.518,1.153-1.154C386.188,341.419,385.671,340.901,385.034,340.901z"/>
					<path fill="#FF00FF" d="M567.643,378.022H463.787c-0.586,0-1.08,0.439-1.146,1.021c-0.082,0.701-2.221,17.167-22.109,20.033
						h-49.878c-0.639,0-1.155,0.519-1.155,1.155s0.518,1.155,1.155,1.155h49.961c0.055,0,0.107-0.004,0.162-0.013
						c18.809-2.672,23.135-17.055,23.977-21.045h102.891c0.639,0,1.155-0.517,1.155-1.155
						C568.797,378.54,568.279,378.022,567.643,378.022z"/>
					<path fill="#FF00FF" d="M382.945,399.078h-25.222c-0.638,0-1.154,0.519-1.154,1.155s0.517,1.155,1.154,1.155h25.222
						c0.639,0,1.155-0.519,1.155-1.155S383.584,399.078,382.945,399.078z"/>
					<path fill="#FF00FF" d="M286.496,109.344H469.38c0.64,0,1.156-0.518,1.156-1.154c0-0.639-0.519-1.156-1.156-1.156H286.496
						c-0.638,0-1.155,0.518-1.155,1.156C285.341,108.828,285.857,109.344,286.496,109.344z"/>
					<path fill="#FF00FF" d="M268.969,109.344h8.86c0.638,0,1.155-0.518,1.155-1.154c0-0.639-0.517-1.156-1.155-1.156h-8.86
						c-0.639,0-1.155,0.518-1.155,1.156C267.814,108.828,268.332,109.344,268.969,109.344z"/>
					<path fill="#FF00FF" d="M479.546,109.344h26.185c0.639,0,1.155-0.518,1.155-1.154c0-0.639-0.518-1.156-1.155-1.156h-26.185
						c-0.638,0-1.155,0.518-1.155,1.156C478.391,108.828,478.908,109.344,479.546,109.344z"/>
				</g>
			</g>
		</g>
		<g>
			
				<image overflow="visible" enable-background="new    " width="571" height="333" xlink:href="141A69E2.png"  transform="matrix(0.8788 0 0 0.8777 127.2852 78.9158)">
			</image>
			<g>
				<g>
					<g>
						<path fill="#FFFFFF" d="M180.14,93.261c-3.892,0-7.06,3.167-7.06,7.058c0,2.843,1.692,5.396,4.31,6.504
							c0.589,0.25,1.266-0.026,1.514-0.613c0.248-0.587-0.026-1.265-0.614-1.514c-1.763-0.746-2.901-2.463-2.901-4.377
							c0-2.619,2.13-4.749,4.75-4.749c2.62,0,4.75,2.13,4.75,4.749c0,1.972-1.186,3.707-3.021,4.426
							c-0.594,0.232-0.887,0.901-0.655,1.495c0.178,0.457,0.614,0.734,1.076,0.734c0.14,0,0.281-0.025,0.42-0.08
							c2.727-1.066,4.489-3.648,4.489-6.576C187.199,96.427,184.032,93.261,180.14,93.261z"/>
					</g>
					<g>
						<path fill="#FFFFFF" d="M200.458,93.261c-3.892,0-7.059,3.167-7.059,7.058c0,2.843,1.692,5.396,4.31,6.504
							c0.588,0.25,1.266-0.026,1.513-0.613c0.248-0.587-0.026-1.265-0.614-1.514c-1.762-0.746-2.9-2.463-2.9-4.377
							c0-2.619,2.13-4.749,4.75-4.749s4.75,2.13,4.75,4.749c0,1.972-1.186,3.707-3.021,4.426c-0.593,0.232-0.887,0.901-0.655,1.495
							c0.178,0.457,0.614,0.734,1.075,0.734c0.14,0,0.282-0.025,0.42-0.08c2.727-1.066,4.488-3.648,4.488-6.576
							C207.518,96.427,204.351,93.261,200.458,93.261z"/>
					</g>
					<g>
						<path fill="#FFFFFF" d="M220.777,93.261c-3.892,0-7.059,3.167-7.059,7.058c0,2.844,1.692,5.396,4.311,6.504
							c0.586,0.25,1.265-0.026,1.514-0.613c0.248-0.587-0.027-1.265-0.614-1.514c-1.763-0.746-2.901-2.463-2.901-4.377
							c0-2.619,2.13-4.749,4.75-4.749c2.62,0,4.75,2.13,4.75,4.749c0,1.972-1.186,3.707-3.021,4.426
							c-0.594,0.232-0.887,0.901-0.655,1.495c0.178,0.457,0.614,0.734,1.076,0.734c0.14,0,0.282-0.025,0.42-0.08
							c2.727-1.066,4.488-3.648,4.488-6.576C227.836,96.427,224.669,93.261,220.777,93.261z"/>
					</g>
					<g>
						<path fill="#FFFFFF" d="M241.096,93.261c-3.892,0-7.06,3.167-7.06,7.058c0,2.843,1.692,5.396,4.311,6.504
							c0.587,0.25,1.265-0.026,1.513-0.613s-0.026-1.265-0.614-1.514c-1.762-0.746-2.9-2.463-2.9-4.377
							c0-2.619,2.13-4.749,4.75-4.749c2.62,0,4.75,2.13,4.75,4.749c0,1.972-1.186,3.707-3.021,4.426
							c-0.594,0.232-0.888,0.901-0.655,1.495c0.178,0.457,0.615,0.734,1.076,0.734c0.14,0,0.282-0.025,0.421-0.08
							c2.727-1.066,4.489-3.648,4.489-6.576C248.155,96.427,244.988,93.261,241.096,93.261z"/>
					</g>
					<g>
						<path fill="#FFFFFF" d="M140.368,290.37c-0.638,0-1.155,0.518-1.155,1.155v56.559c0,0.638,0.517,1.154,1.155,1.154
							c0.638,0,1.155-0.518,1.155-1.154v-56.559C141.523,290.886,141.006,290.37,140.368,290.37z"/>
					</g>
					<g>
						<path fill="#FFFFFF" d="M140.368,270.65c-0.638,0-1.155,0.517-1.155,1.155v9.069c0,0.64,0.517,1.155,1.155,1.155
							c0.638,0,1.155-0.517,1.155-1.155v-9.069C141.523,271.167,141.006,270.65,140.368,270.65z"/>
					</g>
					<g>
						<path fill="#FFFFFF" d="M509.969,90.885H453.41c-0.639,0-1.155,0.517-1.155,1.154c0,0.64,0.519,1.155,1.155,1.155h56.559
							c0.637,0,1.154-0.517,1.154-1.155C511.123,91.401,510.605,90.885,509.969,90.885z"/>
					</g>
					<g>
						<path fill="#FFFFFF" d="M442.761,90.885h-9.071c-0.639,0-1.154,0.517-1.154,1.154c0,0.64,0.517,1.155,1.154,1.155h9.071
							c0.639,0,1.154-0.517,1.154-1.155C443.915,91.401,443.398,90.885,442.761,90.885z"/>
					</g>
					<g>
						<path fill="#FFFFFF" d="M615.508,285.172c-0.637,0-1.154,0.519-1.154,1.156v33.967c0,0.638,0.519,1.154,1.154,1.154
							c0.639,0,1.155-0.518,1.155-1.154v-33.967C616.662,285.689,616.146,285.172,615.508,285.172z"/>
					</g>
					<g>
						<path fill="#FFFFFF" d="M615.508,329.788c-0.637,0-1.154,0.519-1.154,1.155v9.072c0,0.638,0.519,1.154,1.154,1.154
							c0.639,0,1.155-0.518,1.155-1.154v-9.072C616.662,330.304,616.146,329.788,615.508,329.788z"/>
					</g>
					<g>
						<path fill="#FFFFFF" d="M464.328,356.869c-0.113-0.21-0.302-0.364-0.53-0.431l-4.148-1.241
							c-0.229-0.067-0.47-0.044-0.68,0.069c-0.21,0.111-0.36,0.302-0.432,0.53c-0.14,0.472,0.128,0.97,0.601,1.109l4.149,1.241
							c0.085,0.024,0.17,0.037,0.253,0.037c0.386,0,0.741-0.25,0.855-0.638C464.467,357.319,464.442,357.079,464.328,356.869z"/>
						<path fill="#FFFFFF" d="M453.422,337.203c-0.229-0.068-0.469-0.045-0.68,0.068c-0.21,0.113-0.362,0.301-0.433,0.528
							l-1.239,4.15c-0.069,0.229-0.044,0.469,0.068,0.679c0.113,0.21,0.302,0.364,0.53,0.433c0.085,0.022,0.17,0.037,0.256,0.037
							c0.146,0,0.29-0.036,0.423-0.107c0.21-0.112,0.361-0.302,0.433-0.529l1.241-4.148c0.067-0.229,0.043-0.473-0.071-0.683
							C453.837,337.423,453.649,337.27,453.422,337.203z"/>
						<path fill="#FFFFFF" d="M442.184,338.839c-0.113-0.209-0.302-0.362-0.531-0.431c-0.229-0.066-0.469-0.043-0.679,0.069
							c-0.209,0.111-0.361,0.3-0.433,0.53c-0.066,0.229-0.041,0.469,0.07,0.68l2.057,3.812c0.112,0.209,0.302,0.362,0.53,0.432
							c0.085,0.024,0.171,0.038,0.257,0.038c0.146,0,0.29-0.037,0.422-0.107c0.21-0.113,0.363-0.301,0.432-0.528
							c0.068-0.229,0.044-0.471-0.068-0.681L442.184,338.839z"/>
						<path fill="#FFFFFF" d="M458.949,348.367l3.813-2.057c0.21-0.113,0.363-0.303,0.433-0.53c0.066-0.228,0.043-0.469-0.07-0.68
							c-0.235-0.435-0.776-0.594-1.209-0.361l-3.813,2.057c-0.209,0.114-0.36,0.303-0.431,0.531
							c-0.067,0.229-0.043,0.471,0.069,0.678c0.162,0.3,0.47,0.47,0.787,0.47C458.671,348.474,458.815,348.439,458.949,348.367z"/>
					</g>
				</g>
			</g>
		</g>
	</g>
</g>
</svg>
